<?xml version="1.0" encoding="UTF-8"?>
<svg width="256px" height="256px" viewBox="0 0 256 256" version="1.1" xmlns="http://www.w3.org/2000/svg" xmlns:xlink="http://www.w3.org/1999/xlink">
    <!-- Generator: Sketch 49.3 (51167) - http://www.bohemiancoding.com/sketch -->
    <title>icon-color-block</title>
    <desc>Created with Sketch.</desc>
    <defs></defs>
    <g id="Brand" stroke="none" stroke-width="1" fill="none" fill-rule="evenodd">
        <g id="Icons" transform="translate(-65.000000, -75.000000)">
            <g id="icon-color-block" transform="translate(65.000000, 75.000000)">
                <rect id="Rectangle" fill="#FFFFFF" x="21" y="12" width="216" height="233" rx="21"></rect>
                <path d="M121.65559,203.664455 C120.872773,203.569283 120.114905,203.406595 119.384911,203.189452 C119.303446,203.519519 119.260231,203.864571 119.260231,204.219641 C119.260231,204.847541 119.395262,205.443324 119.636389,205.979688 L115.733346,205.979688 C114.820278,204.214823 112.97646,203.0072 110.848112,203.0072 C107.814734,203.0072 105.355239,205.462594 105.355239,208.492894 C105.355239,210.614265 106.559266,212.453 108.322709,213.366747 C106.559266,214.280494 105.355239,216.11923 105.355239,218.2406 C105.355239,221.269294 107.814734,223.726294 110.848112,223.726294 C113.042368,223.726294 114.936019,222.443194 115.816937,220.585188 L131.162261,220.585188 C132.043179,222.443194 133.935222,223.726294 136.129479,223.726294 C139.162856,223.726294 141.62396,221.269294 141.62396,218.2406 C141.62396,216.11923 140.418325,214.280494 138.654882,213.366747 C140.418325,212.453 141.62396,210.614265 141.62396,208.492894 C141.62396,205.462594 139.162856,203.0072 136.129479,203.0072 C134.002738,203.0072 132.157312,204.214823 131.244245,205.979688 L127.48427,205.979688 C127.725397,205.443324 127.860428,204.847541 127.860428,204.219641 C127.860428,203.879334 127.820732,203.548229 127.745711,203.230699 C127.051802,203.361054 126.336441,203.439705 125.601872,203.456847 C125.500027,203.47893 125.397722,203.4999 125.29496,203.519727 C125.325384,203.652819 125.341455,203.791408 125.341455,203.933794 C125.341455,204.955135 124.511978,205.78377 123.489599,205.78377 C122.465613,205.78377 121.636136,204.955135 121.636136,203.933794 C121.636136,203.842296 121.642772,203.752366 121.65559,203.664455 Z M119.384911,203.189452 C117.898111,202.74719 116.526938,202.079032 115.296103,201.29533 C112.417045,199.459806 110.298343,196.9739 109.274357,195.268453 C97.2228267,195.624959 88.6660324,189.270482 86.8849067,176.298165 C85.8143032,168.495182 86.0779356,160.491465 84.3514658,152.808924 C82.8339725,146.049765 79.9163356,139.666382 77.2237503,133.284606 C73.2467617,123.8645 65.2188388,115.624718 64.3572115,105.438606 C63.8540597,99.4888115 71.9350306,89.5002232 73.5682644,90.0687056 C79.5048121,94.6229883 77.5002426,108.780447 86.3045949,124.457071 C96.9559795,143.424147 125.232144,137.418147 124.198512,114.629071 C123.983106,109.880477 117.522508,57.2798 116.114327,57.0919118 C108.517218,55.0781353 102.379731,53.1976471 95.4288418,51.4873823 C93.557696,51.0264941 90.0372414,51.7700176 88.3059487,54.0038 C82.1186289,61.989853 75.9795348,70.1108 71.1200212,78.9640294 C65.0178996,90.0863705 60.753166,100.879506 54.1221725,111.695124 C52.1047429,114.985576 46.9205116,116.127359 45.3033529,114.105553 C39.2832144,106.5836 37.3590207,98.0820587 35.4975199,88.6346527 C33.2373558,77.1606235 33.1537652,64.9462823 35.7884799,53.5509412 C36.8430088,48.9918411 41.3231492,44.8615118 45.8740202,43.7807529 C64.3298837,39.3950882 84.9301703,31.9935765 96.177943,32.5106706 C107.424108,33.0277647 107.842062,40.6926411 111.788508,41.5566059 C113.230448,41.8729647 115.419881,40.4035824 118.392173,39.4400529 C127.12258,36.6088824 140.866821,37.0569236 150.220943,38.9871941 C155.813483,40.1418235 160.782307,40.0422588 164.993992,38.3255706 C167.434198,37.3299235 168.688059,34.2803529 171.170059,33.3906942 C174.002498,32.3757765 177.238424,32.2617589 180.183389,32.8800235 C192.326546,35.4285589 204.435946,38.4668882 216.055054,42.8124059 C218.657619,43.7855706 220.50626,46.2762942 222.088053,48.5550411 C222.793751,49.5699588 222.766424,51.0040117 222.591205,52.2260882 C222.232729,54.7312647 221.390392,57.1529353 220.517512,59.5280353 C214.841382,74.9493236 209.837191,90.670912 202.947389,105.591165 C202.064863,107.500559 199.759689,109.088776 197.653846,109.042206 C196.120278,109.006877 195.47888,106.797182 194.834267,105.406489 C186.59576,87.6325826 180.244474,68.9642 171.057534,51.6608176 C170.383985,50.3921706 168.24117,53.0884471 167.768561,54.4438118 C167.189856,56.1075059 167.609417,58.0698942 168.257245,59.7095 C173.812812,73.7417 187.005676,86.1680181 186.293547,101.24083 C184.86286,131.482806 171.586406,121.853936 164.3108,179.346129 C162.854392,190.860306 150.389731,198.000059 138.035989,196.7009 C136.881794,198.125318 135.246954,199.718353 133.243992,200.995029 C131.633781,202.020303 129.782123,202.848147 127.745711,203.230699 C127.620914,202.702491 127.398366,202.211847 127.098195,201.778895 C128.169895,201.386908 129.171545,200.871097 130.09005,200.285229 C132.035141,199.045488 133.605682,197.497418 134.687539,196.137236 C134.079898,195.995918 133.475473,195.832117 132.874264,195.647441 C130.004852,195.183341 127.538926,192.479035 123.2758,192.642836 C120.076848,192.766489 116.480839,194.121853 113.111491,194.823623 C114.143515,196.3733 116.000193,198.424011 118.450044,199.98493 C119.116813,200.410027 119.82704,200.798168 120.575804,201.128907 C120.002143,201.681474 119.581808,202.391696 119.384911,203.189452 Z M0,54.1540868 C0,24.2456105 24.2424327,0 54.1540868,0 L201.845913,0 C231.754389,0 256,24.2424327 256,54.1540868 L256,201.845913 C256,231.754389 231.757567,256 201.845913,256 L54.1540868,256 C24.2456105,256 0,231.757567 0,201.845913 L0,54.1540868 Z M110.651996,195.197794 C111.042622,195.165676 111.438069,195.119106 111.839948,195.058082 C112.881617,196.758712 114.977815,199.191623 117.807038,200.995029 C118.388958,201.365988 119.001421,201.709647 119.644427,202.017977 C118.302153,201.608477 117.059545,200.999847 115.940715,200.285229 C113.529445,198.7484 111.693664,196.737835 110.651996,195.197794 Z M135.988017,196.407024 C135.115138,197.58253 133.875744,198.931471 132.342176,200.147124 L132.600986,199.98493 C134.22779,198.947529 135.594176,197.694942 136.629415,196.516223 C136.415616,196.4825 136.201817,196.445565 135.988017,196.407024 Z M99.4685235,97.6292004 C104.41002,97.1715233 108.785672,100.800818 109.243814,105.735694 C109.701955,110.670571 106.067367,115.040176 101.12587,115.497853 C96.1843733,115.955529 91.8087212,112.326235 91.3505797,107.389753 C90.8940455,102.456482 94.5270269,98.085271 99.4685235,97.6292004 Z M154.202754,98.2394355 C159.142643,97.7817592 163.519902,101.411053 163.978044,106.345929 C164.434578,111.280806 160.799989,115.650411 155.8601,116.108089 C150.918603,116.564159 146.542951,112.936471 146.08481,108.001594 C145.626669,103.066718 149.261257,98.6955061 154.202754,98.2394355 Z M127.138655,160.496282 C134.902946,159.778453 141.620745,163.764253 142.143187,169.4009 C142.665629,175.037547 136.796597,180.189218 129.030699,180.907047 C121.266407,181.624876 114.548609,177.639076 114.026166,172.00243 C113.502117,166.365782 119.374364,161.214112 127.138655,160.496282 Z M127.098195,201.778895 C126.571861,201.971407 126.028632,202.134053 125.470055,202.260464 C123.711669,202.218768 122.067285,201.787716 120.575804,201.128907 C121.349225,200.383925 122.401343,199.925511 123.56033,199.925511 C125.026687,199.925511 126.321977,200.659316 127.098195,201.778895 Z M121.65559,203.664455 C122.097852,203.718222 122.548076,203.75044 123.005738,203.758753 L123.02342,203.758753 C123.803228,203.744666 124.56077,203.661377 125.29496,203.519727 C125.106805,202.696639 124.369671,202.083818 123.489599,202.083818 C122.557204,202.083818 121.786078,202.769515 121.65559,203.664455 Z M114.10172,212.377524 L114.559861,212.377524 C114.625769,212.375918 114.678817,212.353435 114.720612,212.310077 C114.764016,212.268323 114.784913,212.216935 114.788128,212.149488 L114.788128,211.664512 C114.783305,211.359394 114.70936,211.084789 114.561469,210.837483 C114.413577,210.590177 114.219068,210.395865 113.971511,210.248124 C113.722347,210.100382 113.449069,210.024906 113.143641,210.021694 C112.836606,210.024906 112.558507,210.100382 112.31095,210.248124 C112.065,210.395865 111.868883,210.590177 111.724207,210.837483 C111.579531,211.084789 111.50237,211.359394 111.500762,211.664512 L111.500762,215.446365 C111.50237,215.751482 111.579531,216.026088 111.724207,216.271788 C111.868883,216.5207 112.065,216.715012 112.31095,216.862753 C112.558507,217.010494 112.836606,217.084364 113.143641,217.089182 C113.449069,217.084364 113.722347,217.010494 113.971511,216.862753 C114.219068,216.715012 114.413577,216.5207 114.561469,216.271788 C114.70936,216.026088 114.783305,215.751482 114.788128,215.446365 L114.788128,214.918029 C114.784913,214.852188 114.764016,214.799194 114.720612,214.757441 C114.678817,214.714082 114.625769,214.693206 114.559861,214.689994 L114.10172,214.689994 C114.035811,214.693206 113.982763,214.714082 113.939361,214.757441 C113.895958,214.799194 113.875061,214.852188 113.873453,214.918029 L113.873453,215.446365 C113.870238,215.582864 113.83648,215.703306 113.773787,215.814112 C113.709486,215.921706 113.621073,216.011636 113.511762,216.074265 C113.400843,216.1385 113.280281,216.172223 113.143641,216.175435 C113.00861,216.172223 112.886439,216.1385 112.777128,216.074265 C112.667818,216.011636 112.579404,215.921706 112.515104,215.814112 C112.450803,215.703306 112.417045,215.582864 112.415438,215.446365 L112.415438,211.664512 C112.417045,211.528011 112.450803,211.407571 112.515104,211.296765 C112.579404,211.187564 112.667818,211.099241 112.777128,211.035006 C112.886439,210.970771 113.00861,210.938653 113.143641,210.935441 C113.280281,210.938653 113.400843,210.970771 113.511762,211.035006 C113.621073,211.099241 113.709486,211.187564 113.773787,211.296765 C113.83648,211.407571 113.870238,211.528011 113.873453,211.664512 L113.873453,212.149488 C113.875061,212.216935 113.895958,212.268323 113.939361,212.310077 C113.982763,212.353435 114.035811,212.375918 114.10172,212.377524 Z M118.890503,210.021694 L118.433968,210.021694 C118.374491,210.024906 118.321442,210.045782 118.276432,210.089141 C118.231422,210.130894 118.207309,210.183888 118.205702,210.24973 L118.205702,213.092141 L116.746079,213.092141 L116.746079,210.24973 C116.744472,210.183888 116.721967,210.130894 116.680171,210.089141 C116.636769,210.045782 116.585328,210.024906 116.517813,210.021694 L116.061278,210.021694 C115.993763,210.024906 115.942323,210.045782 115.89892,210.089141 C115.855517,210.130894 115.834619,210.183888 115.831404,210.24973 L115.831404,216.859541 C115.834619,216.926988 115.855517,216.978376 115.89892,217.021735 C115.942323,217.065094 115.993763,217.085971 116.061278,217.089182 L116.517813,217.089182 C116.585328,217.085971 116.636769,217.065094 116.680171,217.021735 C116.721967,216.978376 116.744472,216.926988 116.746079,216.859541 L116.746079,214.005888 L118.205702,214.005888 L118.205702,216.859541 C118.207309,216.926988 118.231422,216.978376 118.276432,217.021735 C118.321442,217.065094 118.374491,217.085971 118.433968,217.089182 L118.890503,217.089182 C118.958018,217.085971 119.009459,217.065094 119.052862,217.021735 C119.096264,216.978376 119.117162,216.926988 119.120377,216.859541 L119.120377,210.24973 C119.117162,210.183888 119.096264,210.130894 119.052862,210.089141 C119.009459,210.045782 118.958018,210.024906 118.890503,210.021694 Z M121.906722,210.24973 C121.903906,210.183888 121.864469,210.130894 121.785595,210.089141 C121.703906,210.045782 121.610947,210.024906 121.506723,210.021694 L120.706722,210.021694 C120.588412,210.024906 120.498271,210.045782 120.422215,210.089141 C120.346159,210.130894 120.309539,210.183888 120.306722,210.24973 L120.306722,216.859541 C120.309539,216.926988 120.346159,216.978376 120.422215,217.021735 C120.498271,217.065094 120.588412,217.085971 120.706722,217.089182 L121.506723,217.089182 C121.625032,217.085971 121.717989,217.065094 121.791229,217.021735 C121.867286,216.978376 121.903906,216.926988 121.906722,216.859541 L121.906722,210.24973 Z M124.065089,210.028117 L122.636009,210.028117 C122.576532,210.03133 122.523483,210.052206 122.478473,210.095564 C122.433463,210.138923 122.410957,210.190311 122.407742,210.257759 L122.407742,216.859541 C122.410957,216.920565 122.433463,216.971953 122.478473,217.016917 C122.523483,217.063488 122.576532,217.085971 122.636009,217.089182 L123.094151,217.089182 C123.160059,217.085971 123.213107,217.063488 123.25651,217.016917 C123.298305,216.971953 123.32081,216.920565 123.322417,216.859541 L123.322417,214.005888 L124.065089,214.005888 C124.370517,213.999465 124.643794,213.9272 124.892958,213.779458 C125.140515,213.631718 125.335024,213.434194 125.482916,213.183677 C125.630807,212.934764 125.704752,212.655341 125.709575,212.348618 L125.709575,211.666118 C125.704752,211.364212 125.630807,211.089606 125.482916,210.843906 C125.335024,210.598206 125.140515,210.400683 124.892958,210.254547 C124.643794,210.108412 124.370517,210.034541 124.065089,210.028117 Z M124.922417,212.348618 C124.920671,212.489936 124.88399,212.613589 124.814121,212.724394 C124.744251,212.836806 124.648182,212.925129 124.529404,212.99097 C124.40888,213.055206 124.277876,213.08893 124.129404,213.092141 L123.322417,213.092141 L123.322417,210.940258 L124.129404,210.940258 C124.277876,210.943471 124.40888,210.975588 124.529404,211.039824 C124.648182,211.104059 124.744251,211.192382 124.814121,211.299976 C124.88399,211.409177 124.920671,211.531224 124.922417,211.666118 L124.922417,212.348618 Z M128.25427,210.028117 L126.82519,210.028117 C126.765712,210.03133 126.712664,210.052206 126.667654,210.095564 C126.622643,210.138923 126.59853,210.190311 126.595316,210.257759 L126.595316,216.859541 C126.59853,216.920565 126.622643,216.971953 126.667654,217.016917 C126.712664,217.063488 126.765712,217.085971 126.82519,217.089182 L127.281724,217.089182 C127.349239,217.085971 127.402287,217.063488 127.444083,217.016917 C127.487486,216.971953 127.508383,216.920565 127.509991,216.859541 L127.509991,214.005888 L128.25427,214.005888 C128.559697,213.999465 128.832974,213.9272 129.080532,213.779458 C129.328089,213.631718 129.524205,213.434194 129.672096,213.183677 C129.81838,212.934764 129.893933,212.655341 129.898756,212.348618 L129.898756,211.666118 C129.893933,211.364212 129.81838,211.089606 129.672096,210.843906 C129.524205,210.598206 129.328089,210.400683 129.080532,210.254547 C128.832974,210.108412 128.559697,210.034541 128.25427,210.028117 Z M129.109991,212.348618 C129.106501,212.489936 129.06986,212.613589 129.000067,212.724394 C128.930274,212.836806 128.836054,212.925129 128.715662,212.99097 C128.597014,213.055206 128.464407,213.08893 128.317843,213.092141 L127.509991,213.092141 L127.509991,210.940258 L128.317843,210.940258 C128.464407,210.943471 128.597014,210.975588 128.715662,211.039824 C128.836054,211.104059 128.930274,211.192382 129.000067,211.299976 C129.06986,211.409177 129.106501,211.531224 129.109991,211.666118 L129.109991,212.348618 Z M132.384496,210.24973 C132.381682,210.183888 132.339504,210.130894 132.26077,210.089141 C132.179223,210.045782 132.08924,210.024906 131.985198,210.021694 L131.183792,210.021694 C131.068503,210.024906 130.975709,210.045782 130.899786,210.089141 C130.826676,210.130894 130.790119,210.183888 130.784496,210.24973 L130.784496,216.859541 C130.790119,216.926988 130.826676,216.978376 130.899786,217.021735 C130.975709,217.065094 131.068503,217.085971 131.183792,217.089182 L131.985198,217.089182 C132.1033,217.085971 132.193283,217.065094 132.269205,217.021735 C132.342315,216.978376 132.381682,216.926988 132.384496,216.859541 L132.384496,210.24973 Z M135.044407,210.938653 C135.111922,210.938653 135.163362,210.916171 135.206766,210.874418 C135.250169,210.831059 135.271066,210.776459 135.274281,210.712223 L135.274281,210.257759 C135.271066,210.190311 135.250169,210.137318 135.206766,210.095564 C135.163362,210.052206 135.111922,210.03133 135.044407,210.028117 L133.343657,210.028117 C133.211842,210.03133 133.10253,210.076294 133.01894,210.1598 C132.933741,210.244912 132.888731,210.352506 132.885516,210.484188 L132.885516,216.631506 C132.888731,216.75837 132.933741,216.862753 133.01894,216.951076 C133.10253,217.0394 133.211842,217.084364 133.343657,217.089182 L135.044407,217.089182 C135.111922,217.085971 135.163362,217.065094 135.206766,217.021735 C135.250169,216.978376 135.271066,216.926988 135.274281,216.859541 L135.274281,216.403471 C135.271066,216.336024 135.250169,216.284635 135.206766,216.241277 C135.163362,216.199523 135.111922,216.177041 135.044407,216.175435 L133.800191,216.175435 L133.800191,214.005888 L135.044407,214.005888 C135.111922,214.002677 135.163362,213.980194 135.206766,213.938441 C135.250169,213.895083 135.271066,213.843694 135.274281,213.776247 L135.274281,213.320176 C135.271066,213.252729 135.250169,213.201342 135.206766,213.157982 C135.163362,213.114623 135.111922,213.093747 135.044407,213.092141 L133.800191,213.092141 L133.800191,210.938653 L135.044407,210.938653 Z" id="favicon" fill="#2A6DE3"></path>
            </g>
        </g>
    </g>
</svg>