<?xml version="1.0" encoding="UTF-8"?>
<svg width="255px" height="256px" viewBox="0 0 255 256" version="1.1" xmlns="http://www.w3.org/2000/svg" xmlns:xlink="http://www.w3.org/1999/xlink">
    <!-- Generator: Sketch 49.3 (51167) - http://www.bohemiancoding.com/sketch -->
    <title>icon-white</title>
    <desc>Created with Sketch.</desc>
    <defs></defs>
    <g id="Brand" stroke="none" stroke-width="1" fill="none" fill-rule="evenodd">
        <g id="Icons" transform="translate(-1306.000000, -75.000000)" fill="#FAFAFA">
            <g id="icon-white" transform="translate(1306.000000, 75.000000)">
                <path d="M16.2861293,15.0059 C10.1442988,16.4416333 4.09792596,21.9285667 2.67473952,27.9851 C-0.881057091,43.1232333 -0.768243532,59.3493667 2.28206155,74.5920333 C4.79433274,87.1424333 7.3912141,98.4363 15.5159599,108.428833 C17.6984683,111.1147 24.6950785,109.5979 27.4177904,105.2267 C36.3669429,90.8587 42.1226039,76.5205667 50.3579938,61.7451 C56.9163666,49.9840333 65.2016548,39.1957667 73.5520277,28.5867 C75.88857,25.6192333 80.6397565,24.6315 83.1650446,25.2437667 C92.545926,27.5157667 100.829045,30.0139 111.082062,32.6891 C112.982536,32.9387 121.701723,102.816033 121.992434,109.1243 C123.387417,139.398433 85.2260616,147.3771 70.8510107,122.1803 C58.9687056,101.3547 61.6740616,82.5472333 53.6621293,76.4971 C51.457926,75.7419 40.5518921,89.0112333 41.2309429,96.9152333 C42.3937904,110.446967 53.228231,121.3931 58.5955531,133.907233 C62.2294514,142.3851 66.1670785,150.8651 68.2150785,159.8443 C70.5451124,170.050167 70.1893158,180.6827 71.6341971,191.048567 C74.0379938,208.281633 85.5861971,216.723233 101.850875,216.249633 C103.232841,218.515233 106.092231,221.817633 109.97779,224.256033 C112.915282,226.0971 116.445045,227.458167 120.382672,227.528567 L120.406536,227.528567 C121.606265,227.507233 122.766943,227.366433 123.886401,227.1275 C127.787146,227.0379 131.286536,225.683233 134.200163,223.8571 C136.90335,222.1611 139.109723,220.044833 140.667417,218.152567 C157.33996,219.878433 174.162197,210.393633 176.127756,195.097633 C185.946875,118.722167 203.864706,131.513633 205.795553,91.3387 C206.756638,71.3152333 188.951621,54.8075 181.453858,36.1664333 C180.579553,33.9883 180.013316,31.3813667 180.794333,29.1712333 C181.432163,27.3707 184.324095,23.7888333 185.233112,25.4741667 C197.631756,48.4608333 206.203417,73.2608333 217.322062,96.8725667 C218.192028,98.7200333 219.057655,101.6555 221.12735,101.702433 C223.969384,101.7643 227.080434,99.6544333 228.271485,97.1179 C237.569926,77.2971 244.323553,56.4117667 251.984028,35.9253667 C253.162062,32.7701667 254.298875,29.5531 254.782672,26.2251 C255.019146,24.6016333 255.056028,22.6965667 254.103621,21.3483 C251.968841,18.3211 249.473926,15.0123 245.961519,13.7195 C230.280434,7.94670001 213.937655,3.91043334 197.549316,0.524833342 C193.574807,-0.296499992 189.207621,-0.145033325 185.384977,1.20323334 C182.035282,2.38510001 180.343079,6.43630001 177.04979,7.75896668 C171.365723,10.0395 164.659824,10.1717667 157.112163,8.63790001 C144.487892,6.07363334 125.93874,5.47843334 114.156231,9.23950001 C110.144841,10.5195 107.189994,12.4715 105.24396,12.0512333 C99.9178582,10.9035 99.3537904,0.721100008 84.1760277,0.0341666751 C68.9960955,-0.652766658 41.1940616,9.17976668 16.2861293,15.0059 L16.2861293,15.0059 Z M103.710129,216.155767 C104.237316,216.1131 104.771011,216.051233 105.313384,215.970167 C106.719214,218.229367 109.548231,221.461367 113.366536,223.8571 C114.151892,224.3499 114.978468,224.806433 115.846265,225.216033 C114.03474,224.672033 112.357723,223.8635 110.847756,222.914167 C107.593519,220.872567 105.11596,218.201633 103.710129,216.155767 L103.710129,216.155767 Z M123.708502,225.538167 C125.997316,225.0283 128.095214,224.0747 129.943621,222.914167 C132.568706,221.267233 134.688299,219.2107 136.148367,217.403767 C135.328299,217.216033 134.51257,216.998433 133.70118,216.7531 C129.828638,216.136567 126.500638,212.544033 120.747146,212.761633 C116.429858,212.9259 111.576706,214.726433 107.029451,215.6587 C108.422265,217.717367 110.928028,220.441633 114.234333,222.515233 C116.926672,224.204833 120.144028,225.454967 123.708502,225.538167 L123.708502,225.538167 Z M137.903485,217.762167 C136.725451,219.323767 135.052773,221.115767 132.983079,222.7307 L133.332367,222.515233 C135.527892,221.1371 137.37196,219.4731 138.769112,217.907233 C138.48057,217.862433 138.192028,217.813367 137.903485,217.762167 L137.903485,217.762167 Z M88.6169768,86.5408333 C95.2859938,85.9328333 101.19135,90.7541667 101.809655,97.3099 C102.42796,103.865633 97.5227395,109.670433 90.8537226,110.278433 C84.1847056,110.886433 78.2793497,106.0651 77.6610446,99.5072333 C77.044909,92.9536333 81.9479599,87.1467 88.6169768,86.5408333 L88.6169768,86.5408333 Z M162.485994,87.3515 C169.152841,86.7435 175.060367,91.5648333 175.678672,98.1205667 C176.294807,104.6763 171.389587,110.4811 164.72274,111.0891 C158.053723,111.694967 152.148367,106.875767 151.530062,100.320033 C150.911756,93.7643 155.816977,87.9573667 162.485994,87.3515 L162.485994,87.3515 Z M125.960434,170.056567 C136.439079,169.102967 145.505384,174.3979 146.210468,181.8859 C146.915553,189.3739 138.99474,196.217633 128.513926,197.171233 C118.035282,198.124833 108.968977,192.8299 108.263892,185.3419 C107.556638,177.8539 115.48179,171.010167 125.960434,170.056567 L125.960434,170.056567 Z" id="Fill-15"></path>
                <path d="M111.746169,251.445333 C110.557288,253.9136 108.001627,255.618133 105.040271,255.618133 C100.946441,255.618133 97.6271186,252.354133 97.6271186,248.330667 C97.6271186,245.512533 99.2520678,243.069867 101.632,241.856 C99.2520678,240.642133 97.6271186,238.199467 97.6271186,235.381333 C97.6271186,231.355733 100.946441,228.093867 105.040271,228.093867 C107.912678,228.093867 110.401085,229.698133 111.633356,232.042667 L116.900881,232.042667 C116.575458,231.330133 116.39322,230.538667 116.39322,229.704533 C116.39322,226.555733 118.992271,224 122.19661,224 C125.400949,224 128,226.555733 128,229.704533 C128,230.538667 127.817763,231.330133 127.492339,232.042667 L132.56678,232.042667 C133.799051,229.698133 136.289627,228.093867 139.159864,228.093867 C143.253695,228.093867 146.575186,231.355733 146.575186,235.381333 C146.575186,238.199467 144.948068,240.642133 142.568136,241.856 C144.948068,243.069867 146.575186,245.512533 146.575186,248.330667 C146.575186,252.354133 143.253695,255.618133 139.159864,255.618133 C136.198508,255.618133 133.645017,253.9136 132.456136,251.445333 L111.746169,251.445333 L111.746169,251.445333 Z M122.101153,226.8672 C123.480949,226.8672 124.600407,227.965867 124.600407,229.3248 C124.600407,230.6816 123.480949,231.7824 122.101153,231.7824 C120.719186,231.7824 119.599729,230.6816 119.599729,229.3248 C119.599729,227.965867 120.719186,226.8672 122.101153,226.8672 L122.101153,226.8672 Z M109.431322,240.541867 L110.049627,240.541867 C110.138576,240.539733 110.210169,240.509867 110.266576,240.452267 C110.325153,240.3968 110.353356,240.328533 110.357695,240.238933 L110.357695,239.594667 C110.351186,239.189333 110.25139,238.824533 110.051797,238.496 C109.852203,238.167467 109.589695,237.909333 109.255593,237.713067 C108.919322,237.5168 108.550508,237.416533 108.138305,237.412267 C107.723932,237.416533 107.34861,237.5168 107.014508,237.713067 C106.682576,237.909333 106.417898,238.167467 106.222644,238.496 C106.02739,238.824533 105.923254,239.189333 105.921085,239.594667 L105.921085,244.618667 C105.923254,245.024 106.02739,245.3888 106.222644,245.7152 C106.417898,246.045867 106.682576,246.304 107.014508,246.500267 C107.34861,246.696533 107.723932,246.794667 108.138305,246.801067 C108.550508,246.794667 108.919322,246.696533 109.255593,246.500267 C109.589695,246.304 109.852203,246.045867 110.051797,245.7152 C110.25139,245.3888 110.351186,245.024 110.357695,244.618667 L110.357695,243.9168 C110.353356,243.829333 110.325153,243.758933 110.266576,243.703467 C110.210169,243.645867 110.138576,243.618133 110.049627,243.613867 L109.431322,243.613867 C109.342373,243.618133 109.27078,243.645867 109.212203,243.703467 C109.153627,243.758933 109.125424,243.829333 109.123254,243.9168 L109.123254,244.618667 C109.118915,244.8 109.073356,244.96 108.988746,245.1072 C108.901966,245.250133 108.782644,245.3696 108.635119,245.4528 C108.485424,245.538133 108.322712,245.582933 108.138305,245.5872 C107.956068,245.582933 107.791186,245.538133 107.643661,245.4528 C107.496136,245.3696 107.376814,245.250133 107.290034,245.1072 C107.203254,244.96 107.157695,244.8 107.155525,244.618667 L107.155525,239.594667 C107.157695,239.413333 107.203254,239.253333 107.290034,239.106133 C107.376814,238.961067 107.496136,238.843733 107.643661,238.7584 C107.791186,238.673067 107.956068,238.6304 108.138305,238.626133 C108.322712,238.6304 108.485424,238.673067 108.635119,238.7584 C108.782644,238.843733 108.901966,238.961067 108.988746,239.106133 C109.073356,239.253333 109.118915,239.413333 109.123254,239.594667 L109.123254,240.238933 C109.125424,240.328533 109.153627,240.3968 109.212203,240.452267 C109.27078,240.509867 109.342373,240.539733 109.431322,240.541867 L109.431322,240.541867 Z M115.894237,237.412267 L115.278102,237.412267 C115.197831,237.416533 115.126237,237.444267 115.065492,237.501867 C115.004746,237.557333 114.972203,237.627733 114.970034,237.7152 L114.970034,241.4912 L113.000136,241.4912 L113.000136,237.7152 C112.997966,237.627733 112.967593,237.557333 112.911186,237.501867 C112.85261,237.444267 112.783186,237.416533 112.692068,237.412267 L112.075932,237.412267 C111.984814,237.416533 111.91539,237.444267 111.856814,237.501867 C111.798237,237.557333 111.770034,237.627733 111.765695,237.7152 L111.765695,246.496 C111.770034,246.5856 111.798237,246.653867 111.856814,246.711467 C111.91539,246.769067 111.984814,246.7968 112.075932,246.801067 L112.692068,246.801067 C112.783186,246.7968 112.85261,246.769067 112.911186,246.711467 C112.967593,246.653867 112.997966,246.5856 113.000136,246.496 L113.000136,242.705067 L114.970034,242.705067 L114.970034,246.496 C114.972203,246.5856 115.004746,246.653867 115.065492,246.711467 C115.126237,246.769067 115.197831,246.7968 115.278102,246.801067 L115.894237,246.801067 C115.985356,246.7968 116.05478,246.769067 116.113356,246.711467 C116.171932,246.653867 116.200136,246.5856 116.204475,246.496 L116.204475,237.7152 C116.200136,237.627733 116.171932,237.557333 116.113356,237.501867 C116.05478,237.444267 115.985356,237.416533 115.894237,237.412267 L115.894237,237.412267 Z M119.037831,237.7152 C119.035661,237.627733 119.005288,237.557333 118.944542,237.501867 C118.881627,237.444267 118.810034,237.416533 118.729763,237.412267 L118.113627,237.412267 C118.022508,237.416533 117.953085,237.444267 117.894508,237.501867 C117.835932,237.557333 117.807729,237.627733 117.805559,237.7152 L117.805559,246.496 C117.807729,246.5856 117.835932,246.653867 117.894508,246.711467 C117.953085,246.769067 118.022508,246.7968 118.113627,246.801067 L118.729763,246.801067 C118.820881,246.7968 118.892475,246.769067 118.948881,246.711467 C119.007458,246.653867 119.035661,246.5856 119.037831,246.496 L119.037831,237.7152 L119.037831,237.7152 Z M123.86278,240.503467 C123.86061,240.6912 123.815051,240.855467 123.728271,241.002667 C123.641492,241.152 123.522169,241.269333 123.374644,241.3568 C123.224949,241.442133 123.062237,241.486933 122.877831,241.4912 L121.875525,241.4912 L121.875525,238.632533 L122.877831,238.632533 C123.062237,238.6368 123.224949,238.679467 123.374644,238.7648 C123.522169,238.850133 123.641492,238.967467 123.728271,239.1104 C123.815051,239.255467 123.86061,239.4176 123.86278,239.5968 L123.86278,240.503467 L123.86278,240.503467 Z M122.877831,237.4208 L120.949153,237.4208 C120.868881,237.425067 120.797288,237.4528 120.736542,237.5104 C120.675797,237.568 120.645424,237.636267 120.641085,237.725867 L120.641085,246.496 C120.645424,246.577067 120.675797,246.645333 120.736542,246.705067 C120.797288,246.766933 120.868881,246.7968 120.949153,246.801067 L121.567458,246.801067 C121.656407,246.7968 121.728,246.766933 121.786576,246.705067 C121.842983,246.645333 121.873356,246.577067 121.875525,246.496 L121.875525,242.705067 L122.877831,242.705067 C123.290034,242.696533 123.658847,242.600533 123.995119,242.404267 C124.32922,242.208 124.591729,241.9456 124.791322,241.6128 C124.990915,241.282133 125.090712,240.910933 125.09722,240.503467 L125.09722,239.5968 C125.090712,239.195733 124.990915,238.830933 124.791322,238.504533 C124.591729,238.178133 124.32922,237.915733 123.995119,237.7216 C123.658847,237.527467 123.290034,237.429333 122.877831,237.4208 L122.877831,237.4208 Z M129.516475,240.503467 C129.512136,240.6912 129.466576,240.855467 129.379797,241.002667 C129.293017,241.152 129.175864,241.269333 129.026169,241.3568 C128.878644,241.442133 128.713763,241.486933 128.531525,241.4912 L127.527051,241.4912 L127.527051,238.632533 L128.531525,238.632533 C128.713763,238.6368 128.878644,238.679467 129.026169,238.7648 C129.175864,238.850133 129.293017,238.967467 129.379797,239.1104 C129.466576,239.255467 129.512136,239.4176 129.516475,239.5968 L129.516475,240.503467 L129.516475,240.503467 Z M128.531525,237.4208 L126.602847,237.4208 C126.522576,237.425067 126.450983,237.4528 126.390237,237.5104 C126.329492,237.568 126.296949,237.636267 126.29261,237.725867 L126.29261,246.496 C126.296949,246.577067 126.329492,246.645333 126.390237,246.705067 C126.450983,246.766933 126.522576,246.7968 126.602847,246.801067 L127.218983,246.801067 C127.310102,246.7968 127.381695,246.766933 127.438102,246.705067 C127.496678,246.645333 127.524881,246.577067 127.527051,246.496 L127.527051,242.705067 L128.531525,242.705067 C128.943729,242.696533 129.312542,242.600533 129.646644,242.404267 C129.980746,242.208 130.245424,241.9456 130.445017,241.6128 C130.642441,241.282133 130.744407,240.910933 130.750915,240.503467 L130.750915,239.5968 C130.744407,239.195733 130.642441,238.830933 130.445017,238.504533 C130.245424,238.178133 129.980746,237.915733 129.646644,237.7216 C129.312542,237.527467 128.943729,237.429333 128.531525,237.4208 L128.531525,237.4208 Z M133.180746,237.7152 C133.178576,237.627733 133.146034,237.557333 133.085288,237.501867 C133.022373,237.444267 132.952949,237.416533 132.872678,237.412267 L132.254373,237.412267 C132.165424,237.416533 132.093831,237.444267 132.035254,237.501867 C131.978847,237.557333 131.950644,237.627733 131.946305,237.7152 L131.946305,246.496 C131.950644,246.5856 131.978847,246.653867 132.035254,246.711467 C132.093831,246.769067 132.165424,246.7968 132.254373,246.801067 L132.872678,246.801067 C132.963797,246.7968 133.03322,246.769067 133.091797,246.711467 C133.148203,246.653867 133.178576,246.5856 133.180746,246.496 L133.180746,237.7152 L133.180746,237.7152 Z M137.695458,238.6304 C137.786576,238.6304 137.856,238.600533 137.914576,238.545067 C137.973153,238.487467 138.001356,238.414933 138.005695,238.3296 L138.005695,237.725867 C138.001356,237.636267 137.973153,237.565867 137.914576,237.5104 C137.856,237.4528 137.786576,237.425067 137.695458,237.4208 L135.400136,237.4208 C135.222237,237.425067 135.074712,237.4848 134.961898,237.595733 C134.846915,237.7088 134.786169,237.851733 134.781831,238.026667 L134.781831,246.193067 C134.786169,246.3616 134.846915,246.500267 134.961898,246.6176 C135.074712,246.734933 135.222237,246.794667 135.400136,246.801067 L137.695458,246.801067 C137.786576,246.7968 137.856,246.769067 137.914576,246.711467 C137.973153,246.653867 138.001356,246.5856 138.005695,246.496 L138.005695,245.890133 C138.001356,245.800533 137.973153,245.732267 137.914576,245.674667 C137.856,245.6192 137.786576,245.589333 137.695458,245.5872 L136.016271,245.5872 L136.016271,242.705067 L137.695458,242.705067 C137.786576,242.7008 137.856,242.670933 137.914576,242.615467 C137.973153,242.557867 138.001356,242.4896 138.005695,242.4 L138.005695,241.794133 C138.001356,241.704533 137.973153,241.636267 137.914576,241.578667 C137.856,241.521067 137.786576,241.493333 137.695458,241.4912 L136.016271,241.4912 L136.016271,238.6304 L137.695458,238.6304 L137.695458,238.6304 Z" id="Fill-16"></path>
            </g>
        </g>
    </g>
</svg>