<?xml version="1.0" encoding="UTF-8"?>
<svg width="257px" height="263px" viewBox="0 0 257 263" version="1.1" xmlns="http://www.w3.org/2000/svg" xmlns:xlink="http://www.w3.org/1999/xlink">
    <!-- Generator: Sketch 49.3 (51167) - http://www.bohemiancoding.com/sketch -->
    <title>image</title>
    <desc>Created with Sketch.</desc>
    <defs>
        <rect id="path-1" x="0" y="0" width="154" height="170" rx="4"></rect>
        <filter x="-4.5%" y="-2.9%" width="109.1%" height="108.2%" filterUnits="objectBoundingBox" id="filter-3">
            <feOffset dx="0" dy="2" in="SourceAlpha" result="shadowOffsetOuter1"></feOffset>
            <feGaussianBlur stdDeviation="2" in="shadowOffsetOuter1" result="shadowBlurOuter1"></feGaussianBlur>
            <feColorMatrix values="0 0 0 0 0   0 0 0 0 0   0 0 0 0 0  0 0 0 0.5 0" type="matrix" in="shadowBlurOuter1"></feColorMatrix>
        </filter>
        <rect id="path-4" x="0" y="0" width="154" height="170" rx="4"></rect>
        <filter x="-4.5%" y="-2.9%" width="109.1%" height="108.2%" filterUnits="objectBoundingBox" id="filter-6">
            <feOffset dx="0" dy="2" in="SourceAlpha" result="shadowOffsetOuter1"></feOffset>
            <feGaussianBlur stdDeviation="2" in="shadowOffsetOuter1" result="shadowBlurOuter1"></feGaussianBlur>
            <feColorMatrix values="0 0 0 0 0   0 0 0 0 0   0 0 0 0 0  0 0 0 0.5 0" type="matrix" in="shadowBlurOuter1"></feColorMatrix>
        </filter>
        <rect id="path-7" x="0" y="0" width="154" height="170" rx="4"></rect>
        <filter x="-4.5%" y="-2.9%" width="109.1%" height="108.2%" filterUnits="objectBoundingBox" id="filter-9">
            <feOffset dx="0" dy="2" in="SourceAlpha" result="shadowOffsetOuter1"></feOffset>
            <feGaussianBlur stdDeviation="2" in="shadowOffsetOuter1" result="shadowBlurOuter1"></feGaussianBlur>
            <feColorMatrix values="0 0 0 0 0   0 0 0 0 0   0 0 0 0 0  0 0 0 0.5 0" type="matrix" in="shadowBlurOuter1"></feColorMatrix>
        </filter>
    </defs>
    <g id="graphics" stroke="none" stroke-width="1" fill="none" fill-rule="evenodd">
        <g id="Catalogue" transform="translate(-59.000000, -59.000000)">
            <g id="image" transform="translate(63.000000, 61.000000)">
                <g id="PlaceholderCard" transform="translate(0.000000, 59.000000)">
                    <mask id="mask-2" fill="white">
                        <use xlink:href="#path-1"></use>
                    </mask>
                    <g id="Mask">
                        <use fill="black" fill-opacity="1" filter="url(#filter-3)" xlink:href="#path-1"></use>
                        <use fill="#FFFFFF" fill-rule="evenodd" xlink:href="#path-1"></use>
                    </g>
                    <rect id="Rectangle-8" fill="#F2F2F2" mask="url(#mask-2)" x="0" y="0" width="154" height="125"></rect>
                    <rect id="Rectangle" fill="#F2F2F2" mask="url(#mask-2)" x="6" y="135" width="120" height="24" rx="1"></rect>
                </g>
                <g id="PlaceholderCard" transform="translate(45.000000, 0.000000)">
                    <mask id="mask-5" fill="white">
                        <use xlink:href="#path-4"></use>
                    </mask>
                    <g id="Mask">
                        <use fill="black" fill-opacity="1" filter="url(#filter-6)" xlink:href="#path-4"></use>
                        <use fill="#FFFFFF" fill-rule="evenodd" xlink:href="#path-4"></use>
                    </g>
                    <rect id="Rectangle-8" fill="#F2F2F2" mask="url(#mask-5)" x="0" y="0" width="154" height="125"></rect>
                    <rect id="Rectangle" fill="#F2F2F2" mask="url(#mask-5)" x="6" y="135" width="120" height="24" rx="1"></rect>
                </g>
                <g id="PlaceholderCard" transform="translate(95.000000, 85.000000)">
                    <mask id="mask-8" fill="white">
                        <use xlink:href="#path-7"></use>
                    </mask>
                    <g id="Mask">
                        <use fill="black" fill-opacity="1" filter="url(#filter-9)" xlink:href="#path-7"></use>
                        <use fill="#FFFFFF" fill-rule="evenodd" xlink:href="#path-7"></use>
                    </g>
                    <rect id="Rectangle-8" fill="#CDDDFF" mask="url(#mask-8)" x="0" y="0" width="154" height="125"></rect>
                    <g id="alcohol" mask="url(#mask-8)">
                        <g transform="translate(28.000000, 11.000000)">
                            <g id="Group" stroke-width="1" fill="none" fill-rule="evenodd" transform="translate(1.949318, 1.949318)">
                                <rect id="Rectangle-path" fill="#F0F2F4" fill-rule="nonzero" x="9.63352827" y="76.6393762" width="76.6393762" height="19.2690058"></rect>
                                <g transform="translate(0.000000, 76.608187)" fill="#636A75" fill-rule="nonzero" id="Shape">
                                    <path d="M9.63411306,19.2988304 C14.9403509,19.2988304 19.2682261,14.9711501 19.2682261,9.66452242 C19.2682261,4.3582846 14.9403509,0.0306042885 9.63411306,0.0306042885 C4.32787524,0.0306042885 0.000194931774,4.3582846 0.000194931774,9.66452242 C0.000194931774,14.9709552 4.32787524,19.2988304 9.63411306,19.2988304 Z"></path>
                                    <path d="M86.2727096,19.2988304 C91.5789474,19.2988304 95.9068226,14.9711501 95.9068226,9.66452242 C95.9068226,4.3582846 91.5789474,0.0306042885 86.2727096,0.0306042885 C80.9664717,0.0306042885 76.6387914,4.3582846 76.6387914,9.66452242 C76.6387914,14.9709552 80.9664717,19.2988304 86.2727096,19.2988304 Z"></path>
                                </g>
                                <path d="M73.7475634,21.797271 L79.5639376,21.797271 L79.5639376,33.9522417 L86.9883041,44.6358674 L86.9883041,54.3341131 L86.9883041,72.5602339 L86.9883041,74.1341131 C86.9883041,75.511501 85.8612086,76.6385965 84.4836257,76.6385965 L68.8276803,76.6385965 C67.4502924,76.6385965 66.3231969,75.5116959 66.3231969,74.1341131 L66.3231969,72.5602339 L66.3231969,54.3341131 L66.3231969,44.6358674 L73.7473684,33.9522417 L73.7475634,21.797271 Z" id="Shape" fill="#FFCE34" fill-rule="nonzero"></path>
                                <path d="M76.6559454,66.6925926 C79.5978558,66.6925926 81.9974659,62.1333333 81.9974659,56.5434698 C81.9974659,50.9536062 79.5976608,46.394152 76.6559454,46.394152 C73.7136452,46.394152 71.31423,50.9538012 71.31423,56.5434698 C71.31423,62.1333333 73.7136452,66.6925926 76.6559454,66.6925926 Z" id="Shape" fill="#F0F2F4" fill-rule="nonzero"></path>
                                <path d="M45.2703704,21.797271 L51.0869396,21.797271 L51.0869396,33.9522417 L58.511306,44.6358674 L58.511306,54.3341131 L58.511306,72.5602339 L58.511306,74.1341131 C58.511306,75.511501 57.3842105,76.6385965 56.0066277,76.6385965 L40.3506823,76.6385965 C38.9732943,76.6385965 37.8461988,75.5116959 37.8461988,74.1341131 L37.8461988,72.5602339 L37.8461988,54.3341131 L37.8461988,44.6358674 L45.2703704,33.9522417 L45.2703704,21.797271 Z" id="Shape" fill="#FFCE34" fill-rule="nonzero"></path>
                                <g transform="translate(8.771930, 21.637427)" fill="#F0F2F4" fill-rule="nonzero" id="Shape">
                                    <path d="M39.4068226,45.0551657 C42.3489279,45.0551657 44.7483431,40.4959064 44.7483431,34.9060429 C44.7483431,29.3161793 42.3487329,24.7567251 39.4068226,24.7567251 C36.4647173,24.7567251 34.0653021,29.3163743 34.0653021,34.9060429 C34.0653021,40.4959064 36.4647173,45.0551657 39.4068226,45.0551657 Z"></path>
                                    <path d="M7.57076023,0.159844055 L13.3873294,0.159844055 L13.3873294,12.3148148 L20.811501,22.9984405 L20.811501,32.6966862 L20.811501,50.922807 L20.811501,52.4966862 C20.811501,53.8740741 19.6846004,55.0011696 18.3070175,55.0011696 L2.65107212,55.0011696 C1.27368421,55.0011696 0.146393762,53.874269 0.146393762,52.4966862 L0.146393762,50.922807 L0.146393762,32.6966862 L0.146393762,22.9984405 L7.57076023,12.3148148 L7.57076023,0.159844055 Z"></path>
                                </g>
                                <path d="M29.5834308,66.6925926 L29.5834308,72.5604288 L29.5834308,74.134308 C29.5834308,75.5116959 28.4565302,76.6387914 27.0789474,76.6387914 L11.4230019,76.6387914 C10.045614,76.6387914 8.91832359,75.5118908 8.91832359,74.134308 L8.91832359,72.5604288 L8.91832359,66.6925926 L29.5834308,66.6925926 Z" id="Shape" fill="#FFCE34" fill-rule="nonzero"></path>
                                <path d="M19.2508772,66.6925926 C22.1931774,66.6925926 24.5923977,62.1333333 24.5923977,56.5434698 C24.5923977,50.9536062 22.1929825,46.394152 19.2508772,46.394152 C16.3089669,46.394152 13.9093567,50.9538012 13.9093567,56.5434698 C13.9091618,62.1333333 16.3089669,66.6925926 19.2508772,66.6925926 Z" id="Shape" fill="#F0F2F4" fill-rule="nonzero"></path>
                                <path d="M22.1592593,5.81637427 C22.2300195,0.592007797 19.3003899,0 16.3426901,0 L0,0 L0,5.81637427 L16.3426901,5.81637427 L16.3426901,10.5526316 L22.1592593,10.5526316 L22.1592593,5.81637427 Z" id="Shape" fill="#FFCE34" fill-rule="nonzero"></path>
                            </g>
                            <path d="M90.8046784,76.9325536 C90.8578947,76.6575049 90.8867446,76.3738791 90.8867446,76.0836257 L90.8867446,70.5064327 C90.8867446,69.4300195 90.0140351,68.557115 88.9374269,68.557115 C87.8608187,68.557115 86.9881092,69.4300195 86.9881092,70.5064327 L86.9881092,76.0836257 C86.9881092,76.3846004 86.7339181,76.6387914 86.4329435,76.6387914 L70.7769981,76.6387914 C70.4762183,76.6387914 70.2218324,76.3846004 70.2218324,76.0836257 L70.2218324,47.1961014 L77.2974659,37.01423 C77.5243665,36.6875244 77.6460039,36.2994152 77.6460039,35.9017544 L77.6460039,25.6959064 L79.5637427,25.6959064 L79.5637427,35.9015595 C79.5637427,36.2992203 79.6853801,36.6873294 79.9122807,37.0140351 L86.9879142,47.1959064 L86.9879142,52.1623782 L86.9879142,54.6625731 C86.9879142,55.7389864 87.8606238,56.6118908 88.937232,56.6118908 C90.0138402,56.6118908 90.8865497,55.7389864 90.8865497,54.6625731 L90.8865497,52.1623782 L90.8865497,46.5851852 C90.8865497,46.525731 90.882846,46.4668616 90.8775828,46.4081871 C90.8758285,46.3879142 90.8730994,46.3682261 90.8707602,46.3481481 C90.8660819,46.3099415 90.8602339,46.27154 90.8532164,46.2337232 C90.8491228,46.211306 90.8452242,46.1888889 90.8403509,46.1666667 C90.8317739,46.1272904 90.8212476,46.088499 90.8103314,46.0495127 C90.8025341,46.0220273 90.794152,45.9947368 90.7851852,45.9676413 C90.7719298,45.9276803 90.7576998,45.8879142 90.7417154,45.8487329 C90.7323587,45.8259259 90.7220273,45.8038986 90.7118908,45.7812865 C90.6982456,45.7510721 90.6838207,45.7208577 90.668616,45.6912281 C90.6575049,45.6699805 90.6463938,45.6487329 90.6345029,45.6280702 C90.6161793,45.5953216 90.5962963,45.5633528 90.5760234,45.5317739 C90.5658869,45.5159844 90.5563353,45.4998051 90.545614,45.4844055 C90.5430799,45.4805068 90.5407407,45.4764133 90.5382066,45.4725146 L83.4625731,35.2906433 L83.4625731,25.6959064 L84.2760234,25.6959064 C85.3526316,25.6959064 86.2253411,24.8230019 86.2253411,23.7465887 C86.2253411,22.7387914 85.4602339,21.9095517 84.4791423,21.8079922 C85.4602339,21.7064327 86.2253411,20.877193 86.2253411,19.8693957 C86.2253411,18.7929825 85.3526316,17.920078 84.2760234,17.920078 L72.9339181,17.920078 C71.8573099,17.920078 70.9846004,18.7929825 70.9846004,19.8693957 C70.9846004,20.877193 71.7497076,21.7064327 72.7306043,21.8079922 C71.7495127,21.9095517 70.9846004,22.7387914 70.9846004,23.7465887 C70.9846004,24.8230019 71.8573099,25.6959064 72.9339181,25.6959064 L73.7475634,25.6959064 L73.7475634,35.2908382 L66.6719298,45.4727096 C66.4450292,45.7994152 66.3233918,46.1875244 66.3233918,46.5851852 L66.3233918,76.0834308 C66.3233918,76.27154 66.3364522,76.4565302 66.3592593,76.6385965 L62.374269,76.6385965 C62.397076,76.4565302 62.4101365,76.27154 62.4101365,76.0834308 L62.4101365,46.5851852 C62.4101365,46.1875244 62.288499,45.7994152 62.0615984,45.4727096 L54.98577,35.2908382 L54.98577,25.6959064 L55.7992203,25.6959064 C56.8758285,25.6959064 57.748538,24.8230019 57.748538,23.7465887 C57.748538,22.7387914 56.9834308,21.9095517 56.0023392,21.8079922 C56.9834308,21.7064327 57.748538,20.877193 57.748538,19.8693957 C57.748538,18.7929825 56.8758285,17.920078 55.7992203,17.920078 L44.4573099,17.920078 C43.3807018,17.920078 42.5079922,18.7929825 42.5079922,19.8693957 C42.5079922,20.877193 43.2730994,21.7064327 44.254191,21.8079922 C43.2730994,21.9095517 42.5079922,22.7387914 42.5079922,23.7465887 C42.5079922,24.8230019 43.3807018,25.6959064 44.4573099,25.6959064 L45.2705653,25.6959064 L45.2705653,35.2908382 L38.1949318,45.4727096 C38.1922027,45.4766082 38.1900585,45.4807018 38.1873294,45.4846004 C38.1766082,45.5 38.1670565,45.5161793 38.1569201,45.5319688 C38.1366472,45.5635478 38.1169591,45.5955166 38.0984405,45.6280702 C38.0865497,45.6489279 38.0754386,45.6703704 38.0643275,45.6916179 C38.0491228,45.7210526 38.0348928,45.7510721 38.0210526,45.7812865 C38.0109162,45.8037037 38.0003899,45.8261209 37.9910331,45.8491228 C37.9750487,45.8881092 37.9608187,45.9278752 37.9475634,45.9678363 C37.9385965,45.9949318 37.9302144,46.0222222 37.9224172,46.0497076 C37.911306,46.088499 37.9009747,46.1272904 37.8923977,46.1668616 C37.8875244,46.1890838 37.8836257,46.2116959 37.8795322,46.2341131 C37.8725146,46.2719298 37.8668616,46.3099415 37.8619883,46.3481481 C37.8596491,46.3684211 37.8569201,46.3881092 37.8551657,46.4083821 C37.8499025,46.4672515 37.8461988,46.5261209 37.8461988,46.5853801 L37.8461988,52.1625731 L37.8461988,52.7984405 C37.8461988,53.8748538 38.7189084,54.7477583 39.7955166,54.7477583 C40.8721248,54.7477583 41.7448343,53.8748538 41.7448343,52.7984405 L41.7448343,52.1625731 L41.7448343,47.1961014 L48.8204678,37.01423 C49.0473684,36.6875244 49.1690058,36.2994152 49.1690058,35.9017544 L49.1690058,25.6959064 L51.0869396,25.6959064 L51.0869396,35.9015595 C51.0869396,36.2992203 51.208577,36.6873294 51.4354776,37.0140351 L58.511306,47.1959064 L58.511306,76.0832359 C58.511306,76.3842105 58.2569201,76.6384016 57.9559454,76.6384016 L42.3,76.6384016 C41.9992203,76.6384016 41.7448343,76.3842105 41.7448343,76.0832359 L41.7448343,68.6415205 L41.7448343,68.005653 C41.7448343,66.9292398 40.8721248,66.0563353 39.7955166,66.0563353 C38.7189084,66.0563353 37.8461988,66.9292398 37.8461988,68.005653 L37.8461988,68.6415205 L37.8461988,76.0832359 C37.8461988,76.271345 37.8592593,76.4563353 37.8820663,76.6384016 L33.4461988,76.6384016 C33.4690058,76.4563353 33.4820663,76.271345 33.4820663,76.0832359 L33.4820663,46.5851852 C33.4820663,46.1875244 33.3604288,45.7994152 33.1335283,45.4727096 L26.0578947,35.2908382 L26.0578947,25.6959064 L26.8711501,25.6959064 C27.9477583,25.6959064 28.8204678,24.8230019 28.8204678,23.7465887 C28.8204678,22.6701754 27.9477583,21.797271 26.8711501,21.797271 L15.5292398,21.797271 C14.4526316,21.797271 13.579922,22.6701754 13.579922,23.7465887 C13.579922,24.8230019 14.4526316,25.6959064 15.5292398,25.6959064 L16.3426901,25.6959064 L16.3426901,35.2908382 L9.2668616,45.4727096 C9.03996101,45.7994152 8.91832359,46.1875244 8.91832359,46.5851852 L8.91832359,76.0834308 C8.91832359,76.3736842 8.94717349,76.6573099 9.00038986,76.9323587 C3.85321637,78.1097466 0.000194931774,82.7226121 0.000194931774,88.2216374 C0.000194931774,94.6089669 5.19649123,99.8052632 11.5834308,99.8052632 L88.2220273,99.8052632 C94.6091618,99.8052632 99.8054581,94.6089669 99.8054581,88.2216374 C99.8054581,82.7226121 95.9522417,78.1095517 90.8046784,76.9325536 Z M79.5653021,80.537232 C77.7463938,82.5836257 76.6387914,85.2752437 76.6387914,88.2218324 C76.6387914,91.168616 77.7465887,93.8604288 79.5653021,95.9068226 L20.2403509,95.9068226 C22.0590643,93.8604288 23.1668616,91.168616 23.1668616,88.2218324 C23.1668616,85.2752437 22.0590643,82.5836257 20.2403509,80.537232 L79.5653021,80.537232 Z M13.3723197,76.6385965 C13.071345,76.6385965 12.8169591,76.3844055 12.8169591,76.0834308 L12.8169591,70.5910331 L29.5834308,70.5910331 L29.5834308,76.0834308 C29.5834308,76.3844055 29.3292398,76.6385965 29.0282651,76.6385965 L13.3723197,76.6385965 Z M17.8077973,58.4927875 C17.8077973,53.5633528 19.8495127,50.2927875 21.2,50.2927875 C22.5504873,50.2927875 24.5922027,53.5633528 24.5922027,58.4927875 C24.5922027,63.4220273 22.5504873,66.6925926 21.2,66.6925926 C19.8497076,66.6925926 17.8077973,63.4220273 17.8077973,58.4927875 Z M19.8927875,37.01423 C20.1196881,36.6875244 20.2413255,36.2994152 20.2413255,35.9017544 L20.2413255,25.6959064 L22.1592593,25.6959064 L22.1592593,35.9015595 C22.1592593,36.2992203 22.2808967,36.6873294 22.5077973,37.0140351 L29.5834308,47.1959064 L29.5834308,66.6923977 L26.6530214,66.6923977 C27.8064327,64.5676413 28.4910331,61.7155945 28.4910331,58.4925926 C28.4910331,51.5951267 25.3565302,46.3939571 21.2001949,46.3939571 C17.0436647,46.3939571 13.9093567,51.5953216 13.9093567,58.4925926 C13.9093567,61.7153996 14.5939571,64.5676413 15.7473684,66.6923977 L12.8169591,66.6923977 L12.8169591,47.1961014 L19.8927875,37.01423 Z M3.89883041,88.2218324 C3.89883041,83.9846004 7.34619883,80.537232 11.5834308,80.537232 C15.8208577,80.537232 19.2682261,83.9846004 19.2682261,88.2218324 C19.2682261,92.4592593 15.8208577,95.9068226 11.5834308,95.9068226 C7.34619883,95.9070175 3.89883041,92.4592593 3.89883041,88.2218324 Z M88.2220273,95.9070175 C83.9847953,95.9070175 80.5374269,92.4594542 80.5374269,88.2220273 C80.5374269,83.9847953 83.9847953,80.5374269 88.2220273,80.5374269 C92.4594542,80.5374269 95.9068226,83.9847953 95.9068226,88.2220273 C95.9068226,92.4592593 92.4594542,95.9070175 88.2220273,95.9070175 Z" id="Shape" fill="#000000" fill-rule="nonzero"></path>
                            <path d="M15.4820663,88.2218324 C15.4820663,86.0744639 13.7307992,84.3231969 11.5834308,84.3231969 C9.43606238,84.3231969 7.68479532,86.0744639 7.68479532,88.2218324 C7.68479532,90.3692008 9.43606238,92.1204678 11.5834308,92.1204678 C13.7307992,92.1204678 15.4820663,90.3692008 15.4820663,88.2218324 Z" id="Shape" fill="#000000" fill-rule="nonzero"></path>
                            <path d="M88.2220273,84.3231969 C86.0746589,84.3231969 84.3233918,86.0744639 84.3233918,88.2218324 C84.3233918,90.3692008 86.0746589,92.1204678 88.2220273,92.1204678 C90.3693957,92.1204678 92.1206628,90.3692008 92.1206628,88.2218324 C92.1206628,86.0746589 90.3693957,84.3231969 88.2220273,84.3231969 Z" id="Shape" fill="#000000" fill-rule="nonzero"></path>
                            <path d="M41.2588694,88.2218324 C41.2588694,89.2982456 42.1315789,90.1711501 43.2081871,90.1711501 L57.0477583,90.1711501 C58.1243665,90.1711501 58.997076,89.2982456 58.997076,88.2218324 C58.997076,87.1454191 58.1243665,86.2725146 57.0477583,86.2725146 L43.2081871,86.2725146 C42.1315789,86.2725146 41.2588694,87.1454191 41.2588694,88.2218324 Z" id="Shape" fill="#000000" fill-rule="nonzero"></path>
                            <path d="M57.4191033,58.4927875 C57.4191033,51.5953216 54.2846004,46.394152 50.1282651,46.394152 C45.9717349,46.394152 42.8374269,51.5955166 42.8374269,58.4927875 C42.8374269,65.3900585 45.9719298,70.5912281 50.1282651,70.5912281 C54.2846004,70.5912281 57.4191033,65.3900585 57.4191033,58.4927875 Z M46.7358674,58.4927875 C46.7358674,53.5633528 48.7775828,50.2927875 50.1280702,50.2927875 C51.4785575,50.2927875 53.5202729,53.5633528 53.5202729,58.4927875 C53.5202729,63.4220273 51.4785575,66.6925926 50.1280702,66.6925926 C48.7775828,66.6925926 46.7358674,63.4220273 46.7358674,58.4927875 Z" id="Shape" fill="#000000" fill-rule="nonzero"></path>
                            <path d="M71.31423,58.4927875 C71.31423,65.3900585 74.4487329,70.5912281 78.6052632,70.5912281 C82.7617934,70.5912281 85.8961014,65.3900585 85.8961014,58.4927875 C85.8961014,51.5953216 82.7615984,46.394152 78.6052632,46.394152 C74.4487329,46.394152 71.31423,51.5955166 71.31423,58.4927875 Z M81.9974659,58.4927875 C81.9974659,63.4220273 79.9557505,66.6925926 78.6052632,66.6925926 C77.2547758,66.6925926 75.2128655,63.4222222 75.2128655,58.4927875 C75.2128655,53.5633528 77.2547758,50.2927875 78.6052632,50.2927875 C79.9557505,50.2929825 81.9974659,53.5633528 81.9974659,58.4927875 Z" id="Shape" fill="#000000" fill-rule="nonzero"></path>
                            <path d="M88.9374269,62.7951267 C87.8608187,62.7951267 86.9881092,63.6680312 86.9881092,64.7444444 L86.9881092,64.837037 C86.9881092,65.9134503 87.8608187,66.7863548 88.9374269,66.7863548 C90.0140351,66.7863548 90.8867446,65.9134503 90.8867446,64.837037 L90.8867446,64.7444444 C90.8867446,63.6678363 90.0140351,62.7951267 88.9374269,62.7951267 Z" id="Shape" fill="#000000" fill-rule="nonzero"></path>
                            <path d="M1.94931774,9.71500975 L16.3426901,9.71500975 L16.3426901,12.5019493 C16.3426901,13.5783626 17.2153996,14.4512671 18.2920078,14.4512671 L19.2508772,14.4512671 L19.2508772,16.6808967 C19.2508772,17.7573099 20.1235867,18.6302144 21.2001949,18.6302144 C22.2768031,18.6302144 23.1495127,17.7573099 23.1495127,16.6808967 L23.1495127,14.4512671 L24.108577,14.4512671 C25.1851852,14.4512671 26.0578947,13.5783626 26.0578947,12.5019493 L26.0578947,7.77836257 C26.0912281,5.15516569 25.4699805,3.2337232 24.1590643,1.90487329 C22.4931774,0.216374269 20.148538,0 18.2920078,0 L1.94931774,0 C0.872709552,0 0,0.872904483 0,1.94931774 L0,7.76569201 C0,8.84210526 0.872709552,9.71500975 1.94931774,9.71500975 Z M3.89863548,3.89863548 L18.2920078,3.89863548 C19.9442495,3.89863548 20.8688109,4.1214425 21.3836257,4.64307992 C22.0502924,5.31890838 22.1734893,6.69980507 22.1594542,7.73918129 C22.1592593,7.74795322 22.1592593,7.75692008 22.1592593,7.76569201 L22.1592593,10.5526316 L20.2413255,10.5526316 L20.2413255,7.76569201 C20.2413255,6.68927875 19.368616,5.81637427 18.2920078,5.81637427 L3.89863548,5.81637427 L3.89863548,3.89863548 Z" id="Shape" fill="#000000" fill-rule="nonzero"></path>
                            <path d="M39.7955166,60.5099415 C40.8721248,60.5099415 41.7448343,59.637037 41.7448343,58.5606238 L41.7448343,58.4680312 C41.7448343,57.3916179 40.8721248,56.5187135 39.7955166,56.5187135 C38.7189084,56.5187135 37.8461988,57.3916179 37.8461988,58.4680312 L37.8461988,58.5606238 C37.8461988,59.637232 38.7189084,60.5099415 39.7955166,60.5099415 Z" id="Shape" fill="#000000" fill-rule="nonzero"></path>
                        </g>
                    </g>
                    <text id="Case-of-Weiss" mask="url(#mask-8)" font-family="Roboto-Bold, Roboto" font-size="18" font-weight="bold" fill="#000000">
                        <tspan x="7" y="155">Case of Weiss</tspan>
                    </text>
                </g>
            </g>
        </g>
    </g>
</svg>