<?xml version="1.0" encoding="UTF-8"?>
<svg width="1186px" height="312px" viewBox="0 0 1186 312" version="1.1" xmlns="http://www.w3.org/2000/svg" xmlns:xlink="http://www.w3.org/1999/xlink">
    <!-- Generator: Sketch 49.3 (51167) - http://www.bohemiancoding.com/sketch -->
    <title>branded_mixed_logo</title>
    <desc>Created with Sketch.</desc>
    <defs></defs>
    <g id="Brand" stroke="none" stroke-width="1" fill="none" fill-rule="evenodd">
        <g id="Logos" transform="translate(-73.000000, -521.000000)">
            <g id="branded_mixed_logo" transform="translate(73.000000, 521.000000)">
                <g id="logo_concept_white">
                    <g id="Experimental">
                        <g id="logo_concept_white">
                            <path d="M148.26775,248.216054 C147.313692,248.100064 146.390041,247.901788 145.50036,247.637145 C145.401075,248.039414 145.348406,248.459946 145.348406,248.892688 C145.348406,249.657941 145.512975,250.384051 145.806849,251.037745 L141.050015,251.037745 C139.937214,248.886816 137.690061,247.415025 135.096137,247.415025 C131.399207,247.415025 128.401697,250.407537 128.401697,254.100715 C128.401697,256.686135 129.869105,258.927094 132.018301,260.040723 C129.869105,261.154352 128.401697,263.395311 128.401697,265.980731 C128.401697,269.671952 131.399207,272.666421 135.096137,272.666421 C137.770386,272.666421 140.078273,271.102643 141.151892,268.838198 L159.854006,268.838198 C160.927624,271.102643 163.233552,272.666421 165.907802,272.666421 C169.604731,272.666421 172.604201,269.671952 172.604201,265.980731 C172.604201,263.395311 171.134833,261.154352 168.985638,260.040723 C171.134833,258.927094 172.604201,256.686135 172.604201,254.100715 C172.604201,250.407537 169.604731,247.415025 165.907802,247.415025 C163.315837,247.415025 161.066724,248.886816 159.953923,251.037745 L155.371454,251.037745 C155.665328,250.384051 155.829897,249.657941 155.829897,248.892688 C155.829897,248.477938 155.781517,248.074404 155.690085,247.687414 C154.844384,247.846284 153.972538,247.942141 153.077281,247.963032 C152.953158,247.989946 152.828474,248.015503 152.703232,248.039667 C152.740312,248.201873 152.759898,248.370779 152.759898,248.544312 C152.759898,249.789071 151.748973,250.79897 150.502949,250.79897 C149.254966,250.79897 148.244041,249.789071 148.244041,248.544312 C148.244041,248.432798 148.252128,248.323196 148.26775,248.216054 Z M145.50036,247.637145 C143.688323,247.098138 142.017206,246.28382 140.517125,245.328683 C137.008274,243.091638 134.426105,240.061941 133.178122,237.983427 C118.49032,238.417919 108.061727,230.6734 105.89098,214.863388 C104.586182,205.353503 104.907484,195.598973 102.803349,186.235876 C100.953904,177.998151 97.398034,170.218403 94.1164457,162.440613 C89.2694908,150.959859 79.4854598,140.917625 78.4353515,128.503301 C77.8221353,121.251989 87.6708185,109.078397 89.6613222,109.771235 C96.8964897,115.321767 94.4534207,132.57617 105.183725,151.682055 C118.1651,174.798179 152.626675,167.478367 151.366937,139.70418 C151.10441,133.916831 143.230557,69.8097562 141.514336,69.5807675 C132.255359,67.1264774 124.775297,64.8346324 116.303901,62.7502472 C114.023442,62.1885397 109.732888,63.094709 107.622875,65.8171312 C100.082079,75.5501333 92.600058,85.4475375 86.6775258,96.2374108 C79.2405651,109.792764 74.0429211,122.946898 65.9613977,136.128432 C63.5026554,140.138671 57.1843735,141.530219 55.2134613,139.066143 C47.8764176,129.898762 45.5313065,119.537509 43.2626024,108.023483 C40.5080274,94.0395099 40.4061513,79.1532816 43.6172099,65.2652096 C44.902417,59.7088064 50.3625881,54.6749675 55.9089621,53.3577926 C78.4020458,48.0127638 103.508645,38.9921713 117.216868,39.6223798 C130.923132,40.2525882 131.432513,49.5941564 136.242244,50.6471134 C137.999608,51.0326757 140.66798,49.241866 144.290461,48.0675645 C154.930644,44.6170754 171.681438,45.1631256 183.081774,47.5156428 C189.897682,48.9228474 195.953437,48.8015029 201.086428,46.7092892 C204.060429,45.4958443 205.588572,41.7791801 208.61351,40.6949085 C212.065545,39.4579776 216.009329,39.3190186 219.598505,40.0725287 C234.397978,43.1785561 249.156309,46.88152 263.317097,52.1776197 C266.488973,53.3636642 268.742004,56.3992335 270.669814,59.1764564 C271.529884,60.4133873 271.496579,62.1611393 271.283031,63.650545 C270.846139,66.7037289 269.81954,69.6551399 268.755718,72.549793 C261.837934,91.3444881 255.739077,110.505174 247.34213,128.689232 C246.266552,131.016306 243.457121,132.951946 240.890625,132.895188 C239.021589,132.852131 238.239885,130.159066 237.454263,128.464158 C227.413583,106.80221 219.672953,84.0501187 208.476369,62.9616215 C207.655482,61.4154579 205.043926,64.7015449 204.467934,66.3533956 C203.762637,68.3810228 204.273977,70.7726835 205.063517,72.7709531 C211.834365,89.8726969 227.913168,105.017272 227.045261,123.387261 C225.301611,160.24467 209.120932,148.509484 200.253787,218.578095 C198.47879,232.610998 183.287485,241.312572 168.231362,239.729222 C166.824687,241.465231 164.832225,243.406743 162.391115,244.962692 C160.42867,246.212244 158.171962,247.221179 155.690085,247.687414 C155.537989,247.043661 155.266759,246.445689 154.900925,245.918028 C156.20706,245.440294 157.42782,244.81165 158.547248,244.097623 C160.917828,242.586689 162.831925,240.699978 164.150438,239.042256 C163.409876,238.870025 162.673233,238.670393 161.940509,238.445319 C158.443413,237.879697 155.438066,234.583824 150.242381,234.783456 C146.343658,234.934158 141.961023,236.586008 137.85463,237.441291 C139.112409,239.329959 141.375235,241.829264 144.360991,243.731633 C145.173616,244.24972 146.039205,244.722767 146.951761,245.125856 C146.252612,245.799297 145.740328,246.66488 145.50036,247.637145 Z M0,66.0002933 C0,29.5493378 29.5454649,0 66.0002933,0 L245.999707,0 C282.450662,0 312,29.5454649 312,66.0002933 L312,245.999707 C312,282.450662 282.454535,312 245.999707,312 L66.0002933,312 C29.5493378,312 0,282.454535 0,245.999707 L0,66.0002933 Z M134.85712,237.897312 C135.333195,237.858168 135.815147,237.80141 136.304937,237.727038 C137.574471,239.79968 140.129212,242.764791 143.577328,244.962692 C144.286543,245.414798 145.032982,245.833632 145.816645,246.209409 C144.180749,245.710331 142.66632,244.968564 141.302747,244.097623 C138.364011,242.224613 136.126653,239.774237 134.85712,237.897312 Z M165.735396,239.37106 C164.671574,240.803708 163.161063,242.44773 161.292027,243.929307 L161.607452,243.731633 C163.590119,242.467301 165.255402,240.94071 166.5171,239.504147 C166.256532,239.463047 165.995964,239.418032 165.735396,239.37106 Z M121.227263,118.985588 C127.249712,118.427794 132.582538,122.850997 133.140898,128.865377 C133.699258,134.879758 129.269603,140.205215 123.247154,140.763008 C117.224705,141.320801 111.891879,136.897599 111.333519,130.881261 C110.777118,124.868838 115.204814,119.541424 121.227263,118.985588 Z M187.934606,119.729312 C193.955096,119.171519 199.289881,123.594721 199.848241,129.609101 C200.404642,135.623482 195.974987,140.948939 189.954497,141.506733 C183.932048,142.062569 178.599222,137.641324 178.040862,131.626943 C177.482503,125.612562 181.912157,120.285148 187.934606,119.729312 Z M154.950236,195.604844 C164.412965,194.72999 172.600283,199.587683 173.237009,206.457347 C173.873735,213.32701 166.720852,219.605609 157.256164,220.480464 C147.793434,221.355318 139.606117,216.497624 138.96939,209.627961 C138.330705,202.758297 145.487506,196.479699 154.950236,195.604844 Z M154.900925,245.918028 C154.259456,246.152652 153.597395,246.350877 152.91663,246.504941 C150.773596,246.454124 148.769503,245.928779 146.951761,245.125856 C147.894368,244.217908 149.176637,243.659217 150.589152,243.659217 C152.376275,243.659217 153.95491,244.553541 154.900925,245.918028 Z M148.26775,248.216054 C148.806757,248.281583 149.355468,248.320849 149.913243,248.33098 L149.934793,248.33098 C150.885184,248.313812 151.808438,248.212303 152.703232,248.039667 C152.473919,247.036529 151.575537,246.289653 150.502949,246.289653 C149.366592,246.289653 148.426782,247.125347 148.26775,248.216054 Z M139.061471,258.835107 L139.619831,258.835107 C139.700156,258.83315 139.764808,258.805749 139.815746,258.752906 C139.868644,258.702019 139.894113,258.63939 139.898031,258.557189 L139.898031,257.966124 C139.892153,257.594262 139.802032,257.259586 139.62179,256.958182 C139.441547,256.656778 139.204489,256.41996 138.902779,256.239901 C138.59911,256.059841 138.266053,255.967854 137.893813,255.96394 C137.519614,255.967854 137.18068,256.059841 136.87897,256.239901 C136.579219,256.41996 136.340201,256.656778 136.163877,256.958182 C135.987553,257.259586 135.893514,257.594262 135.891554,257.966124 L135.891554,262.575257 C135.893514,262.947119 135.987553,263.281795 136.163877,263.581242 C136.340201,263.884603 136.579219,264.121421 136.87897,264.30148 C137.18068,264.48154 137.519614,264.571569 137.893813,264.577441 C138.266053,264.571569 138.59911,264.48154 138.902779,264.30148 C139.204489,264.121421 139.441547,263.884603 139.62179,263.581242 C139.802032,263.281795 139.892153,262.947119 139.898031,262.575257 L139.898031,261.931348 C139.894113,261.851104 139.868644,261.786518 139.815746,261.735631 C139.764808,261.682788 139.700156,261.657345 139.619831,261.65343 L139.061471,261.65343 C138.981145,261.657345 138.916493,261.682788 138.863596,261.735631 C138.810699,261.786518 138.78523,261.851104 138.783271,261.931348 L138.783271,262.575257 C138.779352,262.741616 138.73821,262.888404 138.661803,263.023449 C138.583436,263.154579 138.475683,263.264181 138.34246,263.34051 C138.207278,263.418797 138.060342,263.459897 137.893813,263.463812 C137.729244,263.459897 137.580348,263.418797 137.447125,263.34051 C137.313903,263.264181 137.206149,263.154579 137.127783,263.023449 C137.049416,262.888404 137.008274,262.741616 137.006315,262.575257 L137.006315,257.966124 C137.008274,257.799764 137.049416,257.652977 137.127783,257.517932 C137.206149,257.384844 137.313903,257.2772 137.447125,257.198913 C137.580348,257.120627 137.729244,257.081483 137.893813,257.077569 C138.060342,257.081483 138.207278,257.120627 138.34246,257.198913 C138.475683,257.2772 138.583436,257.384844 138.661803,257.517932 C138.73821,257.652977 138.779352,257.799764 138.783271,257.966124 L138.783271,258.557189 C138.78523,258.63939 138.810699,258.702019 138.863596,258.752906 C138.916493,258.805749 138.981145,258.83315 139.061471,258.835107 Z M144.8978,255.96394 L144.341399,255.96394 C144.268911,255.967854 144.204258,255.993297 144.149402,256.046141 C144.094546,256.097027 144.065158,256.161614 144.063199,256.241858 L144.063199,259.706047 L142.284284,259.706047 L142.284284,256.241858 C142.282325,256.161614 142.254897,256.097027 142.203959,256.046141 C142.151062,255.993297 142.088369,255.967854 142.006084,255.96394 L141.449683,255.96394 C141.367399,255.967854 141.304706,255.993297 141.251809,256.046141 C141.198911,256.097027 141.173442,256.161614 141.169524,256.241858 L141.169524,264.297566 C141.173442,264.379767 141.198911,264.442396 141.251809,264.49524 C141.304706,264.548083 141.367399,264.573527 141.449683,264.577441 L142.006084,264.577441 C142.088369,264.573527 142.151062,264.548083 142.203959,264.49524 C142.254897,264.442396 142.282325,264.379767 142.284284,264.297566 L142.284284,260.819676 L144.063199,260.819676 L144.063199,264.297566 C144.065158,264.379767 144.094546,264.442396 144.149402,264.49524 C144.204258,264.548083 144.268911,264.573527 144.341399,264.577441 L144.8978,264.577441 C144.980085,264.573527 145.042778,264.548083 145.095675,264.49524 C145.148572,264.442396 145.174041,264.379767 145.17796,264.297566 L145.17796,256.241858 C145.174041,256.161614 145.148572,256.097027 145.095675,256.046141 C145.042778,255.993297 144.980085,255.967854 144.8978,255.96394 Z M147.736619,256.241858 C147.73466,256.161614 147.707232,256.097027 147.652375,256.046141 C147.59556,255.993297 147.530907,255.967854 147.458419,255.96394 L146.902018,255.96394 C146.819733,255.967854 146.75704,255.993297 146.704143,256.046141 C146.651246,256.097027 146.625777,256.161614 146.623818,256.241858 L146.623818,264.297566 C146.625777,264.379767 146.651246,264.442396 146.704143,264.49524 C146.75704,264.548083 146.819733,264.573527 146.902018,264.577441 L147.458419,264.577441 C147.540703,264.573527 147.605355,264.548083 147.656293,264.49524 C147.709191,264.442396 147.73466,264.379767 147.736619,264.297566 L147.736619,256.241858 Z M151.204327,255.971768 L149.462636,255.971768 C149.390148,255.975683 149.325495,256.001126 149.270639,256.053969 C149.215783,256.106813 149.188354,256.169442 149.184436,256.251644 L149.184436,264.297566 C149.188354,264.371938 149.215783,264.434568 149.270639,264.489368 C149.325495,264.546126 149.390148,264.573527 149.462636,264.577441 L150.020996,264.577441 C150.101322,264.573527 150.165974,264.546126 150.218871,264.489368 C150.269809,264.434568 150.297237,264.371938 150.299196,264.297566 L150.299196,260.819676 L151.204327,260.819676 C151.576567,260.811848 151.909624,260.723775 152.213293,260.543715 C152.515003,260.363656 152.752061,260.122924 152.932304,259.817606 C153.112546,259.514244 153.202667,259.173697 153.208545,258.799878 L153.208545,257.968081 C153.202667,257.600133 153.112546,257.265457 152.932304,256.96601 C152.752061,256.666563 152.515003,256.425832 152.213293,256.247729 C151.909624,256.069627 151.576567,255.979597 151.204327,255.971768 Z M152.093784,258.799878 C152.091825,258.972109 152.050683,259.122811 151.972317,259.257855 C151.89395,259.394857 151.786197,259.502501 151.652974,259.582745 C151.517792,259.661032 151.370855,259.702133 151.204327,259.706047 L150.299196,259.706047 L150.299196,257.08344 L151.204327,257.08344 C151.370855,257.087355 151.517792,257.126498 151.652974,257.204785 C151.786197,257.283072 151.89395,257.390716 151.972317,257.521846 C152.050683,257.654934 152.091825,257.803679 152.093784,257.968081 L152.093784,258.799878 Z M156.309891,255.971768 L154.5682,255.971768 C154.495711,255.975683 154.431059,256.001126 154.376203,256.053969 C154.321346,256.106813 154.291959,256.169442 154.288041,256.251644 L154.288041,264.297566 C154.291959,264.371938 154.321346,264.434568 154.376203,264.489368 C154.431059,264.546126 154.495711,264.573527 154.5682,264.577441 L155.124601,264.577441 C155.206885,264.573527 155.271537,264.546126 155.322476,264.489368 C155.375373,264.434568 155.400842,264.371938 155.402801,264.297566 L155.402801,260.819676 L156.309891,260.819676 C156.682131,260.811848 157.015187,260.723775 157.316898,260.543715 C157.618608,260.363656 157.857625,260.122924 158.037867,259.817606 C158.216151,259.514244 158.308231,259.173697 158.314109,258.799878 L158.314109,257.968081 C158.308231,257.600133 158.216151,257.265457 158.037867,256.96601 C157.857625,256.666563 157.618608,256.425832 157.316898,256.247729 C157.015187,256.069627 156.682131,255.979597 156.309891,255.971768 Z M157.199348,258.799878 C157.19543,258.972109 157.154288,259.122811 157.075921,259.257855 C156.997555,259.394857 156.89176,259.502501 156.756579,259.582745 C156.623356,259.661032 156.47446,259.702133 156.309891,259.706047 L155.402801,259.706047 L155.402801,257.08344 L156.309891,257.08344 C156.47446,257.087355 156.623356,257.126498 156.756579,257.204785 C156.89176,257.283072 156.997555,257.390716 157.075921,257.521846 C157.154288,257.654934 157.19543,257.803679 157.199348,257.968081 L157.199348,258.799878 Z M160.508365,256.241858 C160.506405,256.161614 160.477018,256.097027 160.422162,256.046141 C160.365346,255.993297 160.302653,255.967854 160.230164,255.96394 L159.671804,255.96394 C159.591479,255.967854 159.526827,255.993297 159.47393,256.046141 C159.422992,256.097027 159.397522,256.161614 159.393604,256.241858 L159.393604,264.297566 C159.397522,264.379767 159.422992,264.442396 159.47393,264.49524 C159.526827,264.548083 159.591479,264.573527 159.671804,264.577441 L160.230164,264.577441 C160.312449,264.573527 160.375142,264.548083 160.428039,264.49524 C160.478977,264.442396 160.506405,264.379767 160.508365,264.297566 L160.508365,256.241858 Z M164.585371,257.081483 C164.667655,257.081483 164.730348,257.054083 164.783246,257.003197 C164.836143,256.950353 164.861612,256.883809 164.86553,256.805522 L164.86553,256.251644 C164.861612,256.169442 164.836143,256.104856 164.783246,256.053969 C164.730348,256.001126 164.667655,255.975683 164.585371,255.971768 L162.512582,255.971768 C162.351932,255.975683 162.218709,256.030483 162.116833,256.132256 C162.012997,256.235986 161.958141,256.367117 161.954223,256.527604 L161.954223,264.019648 C161.958141,264.174264 162.012997,264.30148 162.116833,264.409124 C162.218709,264.516769 162.351932,264.571569 162.512582,264.577441 L164.585371,264.577441 C164.667655,264.573527 164.730348,264.548083 164.783246,264.49524 C164.836143,264.442396 164.861612,264.379767 164.86553,264.297566 L164.86553,263.74173 C164.861612,263.659529 164.836143,263.596899 164.783246,263.544056 C164.730348,263.493169 164.667655,263.465769 164.585371,263.463812 L163.068983,263.463812 L163.068983,260.819676 L164.585371,260.819676 C164.667655,260.815762 164.730348,260.788362 164.783246,260.737475 C164.836143,260.684632 164.861612,260.622002 164.86553,260.539801 L164.86553,259.983965 C164.861612,259.901764 164.836143,259.839135 164.783246,259.786291 C164.730348,259.733447 164.667655,259.708004 164.585371,259.706047 L163.068983,259.706047 L163.068983,257.081483 L164.585371,257.081483 Z" id="Combined-Shape" fill="#2A6DE3"></path>
                            <g id="Group" transform="translate(374.000000, 45.000000)" fill="#666666">
                                <path d="M363.072256,133.406303 C361.439971,134.20911 359.633606,134.998348 357.655421,135.776279 L271.729849,135.776279 C273.459348,133.698027 275.426229,131.850441 277.630492,130.231258 C287.90575,122.641907 301.036376,117.637367 317.015589,115.106829 C319.115856,115.106829 321.643411,114.785706 324.602776,114.138938 C327.562141,113.546444 330.899056,113.008224 334.66326,112.578553 C353.174549,110.048015 362.427933,104.613804 362.427933,96.162848 C362.427933,95.8892152 362.421151,95.6201053 362.409847,95.3555182 L404.019554,95.3555182 L404.019554,135.776279 L363.072256,135.776279 L363.072256,133.406303 L363.072256,133.406303 L363.072256,133.406303 Z M381.24895,110.495778 C384.13597,110.495778 386.47588,112.836355 386.47588,115.724199 C386.47588,118.612042 384.13597,120.95262 381.24895,120.95262 C378.364191,120.95262 376.024281,118.612042 376.024281,115.724199 C376.024281,112.836355 378.364191,110.495778 381.24895,110.495778 L381.24895,110.495778 L381.24895,110.495778 Z M381.24895,156.120084 C384.13597,156.120084 386.47588,158.460662 386.47588,161.346244 C386.47588,164.234087 384.13597,166.574665 381.24895,166.574665 C378.364191,166.574665 376.024281,164.234087 376.024281,161.346244 C376.024281,158.460662 378.364191,156.120084 381.24895,156.120084 L381.24895,156.120084 L381.24895,156.120084 Z M327.686484,196.461695 C330.573503,196.461695 332.913414,198.802273 332.913414,201.687855 C332.913414,204.575699 330.573503,206.916276 327.686484,206.916276 C324.799464,206.916276 322.459554,204.575699 322.459554,201.687855 C322.459554,198.802273 324.799464,196.461695 327.686484,196.461695 L327.686484,196.461695 L327.686484,196.461695 Z M283.861209,156.120084 C286.748229,156.120084 289.088139,158.460662 289.088139,161.346244 C289.088139,164.234087 286.748229,166.574665 283.861209,166.574665 C280.97645,166.574665 278.63654,164.234087 278.63654,161.346244 C278.63654,158.460662 280.97645,156.120084 283.861209,156.120084 L283.861209,156.120084 L283.861209,156.120084 Z M334.991073,61.187605 C337.875832,61.187605 340.215742,63.5281828 340.215742,66.4160262 C340.215742,69.3016081 337.875832,71.6421859 334.991073,71.6421859 C332.104053,71.6421859 329.764143,69.3016081 329.764143,66.4160262 C329.764143,63.5281828 332.104053,61.187605 334.991073,61.187605 L334.991073,61.187605 L334.991073,61.187605 Z M337.425936,118.528369 C340.310695,118.528369 342.650605,120.868947 342.650605,123.75679 C342.650605,126.642372 340.310695,128.98295 337.425936,128.98295 C334.538917,128.98295 332.199006,126.642372 332.199006,123.75679 C332.199006,120.868947 334.538917,118.528369 337.425936,118.528369 L337.425936,118.528369 L337.425936,118.528369 Z M361.589183,91.2080596 C360.234974,87.6644022 357.243958,85.2243215 352.636483,83.8900791 C346.123168,82.0085711 340.15244,81.0384186 334.66326,81.0384186 C328.80105,81.0384186 323.526643,81.9000226 318.898821,83.5689563 C314.9108,85.0072244 311.881351,87.5648993 309.776563,91.2080596 L266.862383,91.2080596 C268.829264,78.957905 274.607825,68.8561068 284.247803,60.8551751 C295.601454,51.1672183 311.795442,46.3232399 332.780027,46.3232399 C356.348688,46.3232399 373.996359,50.3598885 385.779559,58.3268988 C397.282422,66.2690334 403.34358,77.2437427 403.965295,91.2080596 L361.589183,91.2080596 L361.589183,91.2080596 L361.589183,91.2080596 Z M344.947561,139.921477 C342.899291,140.486834 340.747026,141.043145 338.483982,141.588149 C328.80105,143.686754 323.956192,144.763194 323.956192,144.763194 C316.423264,146.861799 310.936344,149.552898 307.54517,152.942778 C304.640064,157.571921 303.134383,162.201064 303.134383,166.830206 C303.134383,172.26894 304.579023,176.785012 307.40048,180.342238 L263.093658,180.342238 C262.490029,176.538516 262.187085,172.447593 262.187085,168.067207 C262.187085,156.529403 264.371001,147.153523 268.768223,139.921477 L344.947561,139.921477 L344.947561,139.921477 L344.947561,139.921477 Z M404.019554,139.921477 L404.019554,151.06127 C404.019554,162.526709 402.613347,172.289293 399.769283,180.342238 L348.885844,180.342238 C350.332745,179.311027 351.689215,178.162221 352.957514,176.89356 C359.683343,170.165813 363.072256,160.909788 363.072256,149.175239 L363.072256,139.921477 L404.019554,139.921477 L404.019554,139.921477 L404.019554,139.921477 Z M312.586716,184.489696 C315.959803,186.178983 320.187467,187.01345 325.24936,187.01345 C331.098005,187.01345 336.333978,186.169937 340.945975,184.489696 L398.107607,184.489696 C397.149035,186.6177 396.070642,188.607757 394.872427,190.457605 C388.793182,199.930726 381.529287,206.764761 373.135,210.964232 C364.311165,215.591114 354.949264,218.442774 345.103555,219.467201 C335.201326,220.54364 326.486008,221.08186 318.898821,221.08186 C303.778706,221.08186 290.544083,216.936663 279.190432,208.754817 C271.442729,203.173613 266.351447,195.082224 263.898497,184.489696 L312.586716,184.489696 Z M612.719197,166.183438 L644.248074,166.183438 C642.920994,171.249036 641.245754,175.968636 639.226875,180.342238 L588.895068,180.342238 L589.36531,180.068605 C590.658478,179.638934 591.786609,178.885878 592.865002,177.863713 C593.884615,176.787273 595.069265,175.656559 596.308174,174.365284 C596.737723,173.126022 598.297663,171.459349 601.042254,169.358483 C603.786844,167.259878 607.659565,166.183438 612.719197,166.183438 Z M637.153737,184.489696 C632.306619,193.456258 625.847563,200.810421 617.774307,206.549925 C604.754459,216.237882 588.343437,221.08186 568.59776,221.08186 C544.59955,221.08186 525.930006,213.277673 512.478348,197.723572 C508.953788,193.761551 505.892688,189.349505 503.292788,184.489696 L637.153737,184.489696 Z M568.722103,196.461695 C565.835083,196.461695 563.495173,198.802273 563.495173,201.687855 C563.495173,204.575699 565.835083,206.916276 568.722103,206.916276 C571.606862,206.916276 573.946772,204.575699 573.946772,201.687855 C573.946772,198.802273 571.606862,196.461695 568.722103,196.461695 Z M501.235475,180.342238 C496.053761,169.050929 493.126048,155.570557 492.452334,139.921477 L646.77789,139.921477 L646.77789,140.941381 C646.77789,143.039986 646.560855,144.548358 646.131306,145.353426 L537.066622,145.353426 C537.498432,158.433525 540.618312,168.067207 546.537041,174.365284 C548.49714,176.794058 550.818964,178.786375 553.495731,180.342238 L501.235475,180.342238 Z M517.592239,156.120084 C514.70748,156.120084 512.36757,158.460662 512.36757,161.346244 C512.36757,164.234087 514.70748,166.574665 517.592239,166.574665 C520.479259,166.574665 522.819169,164.234087 522.819169,161.346244 C522.819169,158.460662 520.479259,156.120084 517.592239,156.120084 Z M492.32573,135.776279 C492.309905,134.77899 492.300862,133.774916 492.300862,132.759535 C492.300862,118.684408 494.082359,106.214895 497.645352,95.3555182 L543.491767,95.3555182 C539.539918,100.918631 537.417043,108.121278 537.066622,116.990598 L601.365546,116.990598 C600.673746,107.88609 598.670692,100.683442 595.295344,95.3555182 L641.218625,95.3555182 C644.924048,106.565416 646.77789,119.451032 646.77789,133.998797 L646.77789,135.776279 L492.32573,135.776279 Z M517.592239,110.495778 C514.70748,110.495778 512.36757,112.836355 512.36757,115.724199 C512.36757,118.612042 514.70748,120.95262 517.592239,120.95262 C520.479259,120.95262 522.819169,118.612042 522.819169,115.724199 C522.819169,112.836355 520.479259,110.495778 517.592239,110.495778 Z M622.284569,110.495778 C619.397549,110.495778 617.0599,112.836355 617.0599,115.724199 C617.0599,118.612042 619.397549,120.95262 622.284569,120.95262 C625.171588,120.95262 627.511499,118.612042 627.511499,115.724199 C627.511499,112.836355 625.171588,110.495778 622.284569,110.495778 Z M499.123904,91.2080596 C502.268653,83.0443051 506.50536,75.8687946 511.831764,69.681528 C525.283422,54.1274273 544.007225,46.3232399 567.951176,46.3232399 C593.186033,46.3232399 612.719197,53.9125917 626.600403,69.0370211 C632.105409,75.400679 636.482285,82.795548 639.73329,91.2080596 L592.02173,91.2080596 C586.566461,85.6992214 578.988317,82.922188 569.190085,82.922188 C560.275818,82.922188 552.876276,85.6992214 547.090933,91.2080596 L499.123904,91.2080596 Z M566.28724,61.187605 C563.40022,61.187605 561.06031,63.5281828 561.06031,66.4160262 C561.06031,69.3016081 563.40022,71.6421859 566.28724,71.6421859 C569.171999,71.6421859 571.511909,69.3016081 571.511909,66.4160262 C571.511909,63.5281828 569.171999,61.187605 566.28724,61.187605 Z M768.480349,0.307706215 L789.894484,0.307706215 C795.758955,0.307706215 800.816326,2.51259836 805.012339,6.9269055 C809.210612,11.3412126 811.308619,16.2914782 811.308619,21.7279507 L811.308619,45.4231916 L768.480349,45.4231916 L768.480349,0.307706215 Z M789.060255,19.55698 C786.175496,19.55698 783.835586,21.8975578 783.835586,24.7854011 C783.835586,27.6709831 786.175496,30.0115609 789.060255,30.0115609 C791.947275,30.0115609 794.287185,27.6709831 794.287185,24.7854011 C794.287185,21.8975578 791.947275,19.55698 789.060255,19.55698 Z M811.308619,49.5706502 L811.308619,91.2080596 L753.416754,91.2080596 C747.527414,86.5472568 740.35169,84.2134633 731.88958,84.2134633 C723.951971,84.2134633 717.237446,86.5449954 711.723397,91.2080596 L660.824133,91.2080596 C663.684023,83.7136877 667.409793,76.9655871 672.005965,70.9728033 C684.596264,54.55936 700.790252,46.3232399 720.538189,46.3232399 C731.030482,46.3232399 740.283866,48.4761192 748.302863,52.6755907 C756.697149,57.6801305 763.420717,64.2473169 768.480349,72.2120657 L768.480349,49.5706502 L811.308619,49.5706502 Z M789.060255,64.8420724 C786.175496,64.8420724 783.835586,67.1803888 783.835586,70.0682322 C783.835586,72.9560755 786.175496,75.2966533 789.060255,75.2966533 C791.947275,75.2966533 794.287185,72.9560755 794.287185,70.0682322 C794.287185,67.1803888 791.947275,64.8420724 789.060255,64.8420724 Z M713.586282,64.8420724 C710.699263,64.8420724 708.359352,67.1803888 708.359352,70.0682322 C708.359352,72.9560755 710.699263,75.2966533 713.586282,75.2966533 C716.471041,75.2966533 718.810951,72.9560755 718.810951,70.0682322 C718.810951,67.1803888 716.471041,64.8420724 713.586282,64.8420724 Z M811.308619,95.3555182 L811.308619,135.776279 L768.446438,135.776279 C768.469045,134.783513 768.480349,133.779439 768.480349,132.759535 C768.480349,117.637367 765.303949,105.633708 759.00993,96.8073549 C758.609772,96.3075794 758.20057,95.8258952 757.784586,95.3555182 L811.308619,95.3555182 Z M789.060255,110.495778 C786.175496,110.495778 783.835586,112.836355 783.835586,115.724199 C783.835586,118.612042 786.175496,120.95262 789.060255,120.95262 C791.947275,120.95262 794.287185,118.612042 794.287185,115.724199 C794.287185,112.836355 791.947275,110.495778 789.060255,110.495778 Z M707.633641,95.3555182 C707.077488,96.0249009 706.534901,96.7236821 706.010399,97.4541233 C699.71638,105.850805 696.594239,117.637367 696.594239,132.759535 C696.594239,133.779439 696.605543,134.783513 696.62815,135.776279 L653.713971,135.776279 L653.711711,134.645565 C653.711711,119.930455 655.58816,106.827742 659.354624,95.3555182 L707.633641,95.3555182 Z M679.50046,110.495778 C676.61344,110.495778 674.27353,112.836355 674.27353,115.724199 C674.27353,118.612042 676.61344,120.95262 679.50046,120.95262 C682.385219,120.95262 684.725129,118.612042 684.725129,115.724199 C684.725129,112.836355 682.385219,110.495778 679.50046,110.495778 Z M811.308619,139.921477 L811.308619,144.763194 C811.308619,158.738818 809.416343,170.600007 805.634054,180.342238 L749.801762,180.342238 C753.559183,178.166744 756.826014,175.134169 759.599994,171.244514 C764.648322,163.71622 767.544385,153.252594 768.285922,139.921477 L811.308619,139.921477 Z M789.060255,156.120084 C786.175496,156.120084 783.835586,158.460662 783.835586,161.346244 C783.835586,164.234087 786.175496,166.574665 789.060255,166.574665 C791.947275,166.574665 794.287185,164.234087 794.287185,161.346244 C794.287185,158.460662 791.947275,156.120084 789.060255,156.120084 Z M696.79997,139.921477 C697.582201,153.252594 700.643301,163.71622 706.010399,171.244514 C708.809248,175.134169 712.130338,178.166744 715.97593,180.342238 L661.597321,180.342238 C656.865503,168.849662 654.267863,155.371552 653.790838,139.921477 L696.79997,139.921477 Z M679.50046,156.120084 C676.61344,156.120084 674.27353,158.460662 674.27353,161.346244 C674.27353,164.234087 676.61344,166.574665 679.50046,166.574665 C682.385219,166.574665 684.725129,164.234087 684.725129,161.346244 C684.725129,158.460662 682.385219,156.120084 679.50046,156.120084 Z M803.845775,184.489696 C799.566113,193.490179 793.446174,200.432763 785.481436,205.312924 C768.263314,215.808211 749.539511,221.08186 729.362025,221.08186 C718.440183,221.08186 707.730855,219.252365 697.186564,215.699662 C686.694271,212.146959 678.299984,206.335089 672.005965,198.368079 C668.7007,194.159562 665.845332,189.532681 663.437598,184.489696 L803.845775,184.489696 Z M728.1932,196.461695 C725.308441,196.461695 722.968531,198.802273 722.968531,201.687855 C722.968531,204.575699 725.308441,206.916276 728.1932,206.916276 C731.080219,206.916276 733.42013,204.575699 733.42013,201.687855 C733.42013,198.802273 731.080219,196.461695 728.1932,196.461695 Z M495.845769,217.906816 C481.964563,218.766158 466.952965,218.551323 450.756717,217.260047 C434.560469,216.023046 426.489475,205.688321 426.489475,186.366682 L426.489475,184.489696 L477.201093,184.489696 C478.75199,184.914845 480.553834,185.129681 482.608886,185.129681 L495.845769,185.129681 L495.845769,217.906816 Z M466.464636,196.461695 C463.577616,196.461695 461.237706,198.802273 461.237706,201.687855 C461.237706,204.575699 463.577616,206.916276 466.464636,206.916276 C469.349395,206.916276 471.689305,204.575699 471.689305,201.687855 C471.689305,198.802273 469.349395,196.461695 466.464636,196.461695 Z M426.489475,180.342238 L426.489475,139.921477 L469.964328,139.921477 L469.964328,174.365284 C469.964328,176.753352 470.43231,178.747931 471.370535,180.342238 L426.489475,180.342238 Z M446.985731,156.120084 C444.100973,156.120084 441.761062,158.460662 441.761062,161.346244 C441.761062,164.234087 444.100973,166.574665 446.985731,166.574665 C449.872751,166.574665 452.212661,164.234087 452.212661,161.346244 C452.212661,158.460662 449.872751,156.120084 446.985731,156.120084 Z M426.489475,135.776279 L426.489475,95.3555182 L469.964328,95.3555182 L469.964328,135.776279 L426.489475,135.776279 Z M446.985731,110.495778 C444.100973,110.495778 441.761062,112.836355 441.761062,115.724199 C441.761062,118.612042 444.100973,120.95262 446.985731,120.95262 C449.872751,120.95262 452.212661,118.612042 452.212661,115.724199 C452.212661,112.836355 449.872751,110.495778 446.985731,110.495778 Z M426.489475,91.2080596 L426.489475,49.5706502 L469.964328,49.5706502 L469.964328,50.7918213 L495.845769,50.7918213 L495.845769,59.6181741 C495.845769,65.9139892 493.747763,71.029339 489.549489,75.0659877 C485.353476,79.0461007 480.296105,81.0384186 474.377376,81.0384186 L469.964328,81.0384186 L469.964328,91.2080596 L426.489475,91.2080596 Z M446.985731,64.8420724 C444.100973,64.8420724 441.761062,67.1803888 441.761062,70.0682322 C441.761062,72.9560755 444.100973,75.2966533 446.985731,75.2966533 C449.872751,75.2966533 452.212661,72.9560755 452.212661,70.0682322 C452.212661,67.1803888 449.872751,64.8420724 446.985731,64.8420724 Z M426.489475,45.4231916 L426.489475,0.952213148 L449.196777,0.952213148 C454.629438,0.952213148 459.472035,3.05081818 463.670308,7.25028968 C467.866321,11.4474997 469.964328,16.5063138 469.964328,22.3724576 L469.964328,45.4231916 L426.489475,45.4231916 Z M446.985731,19.55698 C444.100973,19.55698 441.761062,21.8975578 441.761062,24.7854011 C441.761062,27.6709831 444.100973,30.0115609 446.985731,30.0115609 C449.872751,30.0115609 452.212661,27.6709831 452.212661,24.7854011 C452.212661,21.8975578 449.872751,19.55698 446.985731,19.55698 Z M163.191927,217.906816 L163.191927,184.489696 L207.313364,184.489696 L207.313364,217.906816 L163.191927,217.906816 Z M185.257168,196.461695 C182.370148,196.461695 180.030238,198.802273 180.030238,201.687855 C180.030238,204.575699 182.370148,206.916276 185.257168,206.916276 C188.144187,206.916276 190.484097,204.575699 190.484097,201.687855 C190.484097,198.802273 188.144187,196.461695 185.257168,196.461695 Z M163.191927,180.342238 L163.191927,139.921477 L207.313364,139.921477 L207.313364,180.342238 L163.191927,180.342238 Z M185.257168,156.120084 C182.370148,156.120084 180.030238,158.460662 180.030238,161.346244 C180.030238,164.234087 182.370148,166.574665 185.257168,166.574665 C188.144187,166.574665 190.484097,164.234087 190.484097,161.346244 C190.484097,158.460662 188.144187,156.120084 185.257168,156.120084 Z M163.194188,135.776279 C163.266533,119.794769 165.672006,106.305352 170.410607,95.3555182 L235.677145,95.3555182 C227.264773,96.3686379 220.751457,99.1750699 216.1372,103.7522 C210.272729,109.618344 207.313364,118.874368 207.313364,131.522534 L207.313364,135.776279 L163.194188,135.776279 Z M185.257168,110.495778 C182.370148,110.495778 180.030238,112.836355 180.030238,115.724199 C180.030238,118.612042 182.370148,120.95262 185.257168,120.95262 C188.144187,120.95262 190.484097,118.612042 190.484097,115.724199 C190.484097,112.836355 188.144187,110.495778 185.257168,110.495778 Z M172.336794,91.2080596 C176.964616,81.9271597 182.955691,74.3400693 190.310017,68.444527 C198.272494,62.0921762 207.634396,57.5195691 218.341463,54.55936 C229.102789,51.599151 240.133148,50.1450529 251.4868,50.1450529 L254.608941,50.1450529 L257.78308,50.1450529 L257.78308,91.2080596 L172.336794,91.2080596 Z M224.212716,64.8420724 C221.325696,64.8420724 218.985786,67.1803888 218.985786,70.0682322 C218.985786,72.9560755 221.325696,75.2966533 224.212716,75.2966533 C227.099736,75.2966533 229.437385,72.9560755 229.437385,70.0682322 C229.437385,67.1803888 227.099736,64.8420724 224.212716,64.8420724 Z M0.544430475,44.9369846 L0.544430475,0.952213148 L23.2494721,0.952213148 C29.1162035,0.952213148 34.1713138,3.05081818 38.3695875,7.25028968 C42.5656004,11.4474997 44.6636068,16.2914782 44.6636068,21.7279507 L44.6636068,44.9369846 L0.544430475,44.9369846 Z M20.9163443,19.5479343 C18.0248031,19.5479343 15.6803713,21.8930349 15.6803713,24.7854011 C15.6803713,27.6755059 18.0248031,30.0206066 20.9163443,30.0206066 C23.8056247,30.0206066 26.1500565,27.6755059 26.1500565,24.7854011 C26.1500565,21.8930349 23.8056247,19.5479343 20.9163443,19.5479343 Z M0.544430475,217.904554 L0.544430475,184.335919 L44.6658676,184.335919 L44.6658676,217.904554 L0.544430475,217.904554 Z M20.9163443,196.461695 C18.0293246,196.461695 15.6894144,198.802273 15.6894144,201.687855 C15.6894144,204.575699 18.0293246,206.916276 20.9163443,206.916276 C23.8011031,206.916276 26.1410133,204.575699 26.1410133,201.687855 C26.1410133,198.802273 23.8011031,196.461695 20.9163443,196.461695 Z M132.255376,184.335919 L151.899317,217.906816 L98.8997861,217.906816 L80.6417043,184.335919 L132.255376,184.335919 Z M114.65066,196.461695 C111.765901,196.461695 109.425991,198.802273 109.425991,201.687855 C109.425991,204.575699 111.765901,206.916276 114.65066,206.916276 C117.53768,206.916276 119.87759,204.575699 119.87759,201.687855 C119.87759,198.802273 117.53768,196.461695 114.65066,196.461695 Z M62.6390908,91.2080596 L98.255463,50.1450529 L151.252733,50.1450529 L113.020636,91.2080596 L62.6390908,91.2080596 Z M103.694906,64.8420724 C100.810148,64.8420724 98.4679766,67.1803888 98.4679766,70.0682322 C98.4679766,72.9560755 100.810148,75.2966533 103.694906,75.2966533 C106.581926,75.2966533 108.921836,72.9560755 108.921836,70.0682322 C108.921836,67.1803888 106.581926,64.8420724 103.694906,64.8420724 Z M105.892387,139.281493 L129.777558,180.100265 L78.3379666,180.100265 L68.0152323,161.124624 C61.721213,149.767733 56.2320324,144.978029 51.60421,146.646963 C46.9786484,148.315897 44.6636068,150.844173 44.6636068,154.182041 L44.6636068,180.100265 L0.544430475,180.100265 L0.544430475,139.281493 L105.892387,139.281493 Z M20.9163443,156.120084 C18.0293246,156.120084 15.6894144,158.460662 15.6894144,161.346244 C15.6894144,164.234087 18.0293246,166.574665 20.9163443,166.574665 C23.8011031,166.574665 26.1410133,164.234087 26.1410133,161.346244 C26.1410133,158.460662 23.8011031,156.120084 20.9163443,156.120084 Z M91.5205911,156.120084 C88.6358322,156.120084 86.295922,158.460662 86.295922,161.346244 C86.295922,164.234087 88.6358322,166.574665 91.5205911,166.574665 C94.4076107,166.574665 96.7475209,164.234087 96.7475209,161.346244 C96.7475209,158.460662 94.4076107,156.120084 91.5205911,156.120084 Z M44.6636068,95.4437139 L44.6636068,111.931784 L58.9653188,95.4437139 L109.07557,95.4437139 L91.3691186,114.462322 L103.412309,135.045838 L0.544430475,135.045838 L0.544430475,95.4437139 L44.6636068,95.4437139 Z M20.9163443,110.495778 C18.0293246,110.495778 15.6894144,112.836355 15.6894144,115.724199 C15.6894144,118.612042 18.0293246,120.95262 20.9163443,120.95262 C23.8011031,120.95262 26.1410133,118.612042 26.1410133,115.724199 C26.1410133,112.836355 23.8011031,110.495778 20.9163443,110.495778 Z M69.6090842,110.495778 C66.7220646,110.495778 64.3821544,112.836355 64.3821544,115.724199 C64.3821544,118.612042 66.7220646,120.95262 69.6090842,120.95262 C72.4961038,120.95262 74.836014,118.612042 74.836014,115.724199 C74.836014,112.836355 72.4961038,110.495778 69.6090842,110.495778 Z M44.6636068,50.1450529 L44.6636068,91.2080596 L0.544430475,91.2080596 L0.544430475,49.1726389 L44.6636068,49.1726389 L44.6636068,50.1450529 Z M20.9163443,64.8420724 C18.0293246,64.8420724 15.6894144,67.1803888 15.6894144,70.0682322 C15.6894144,72.9560755 18.0293246,75.2966533 20.9163443,75.2966533 C23.8011031,75.2966533 26.1410133,72.9560755 26.1410133,70.0682322 C26.1410133,67.1803888 23.8011031,64.8420724 20.9163443,64.8420724 Z" id="Combined-Shape"></path>
                            </g>
                        </g>
                    </g>
                </g>
            </g>
        </g>
    </g>
</svg>